<svg width="23" height="23" viewBox="0 0 23 23" fill="none" xmlns="http://www.w3.org/2000/svg">
<g clip-path="url(#clip0_319_2)">
<mask id="mask0_319_2" style="mask-type:luminance" maskUnits="userSpaceOnUse" x="0" y="0" width="23" height="23">
<path d="M23 0H0V23H23V0Z" fill="white"/>
</mask>
<g mask="url(#mask0_319_2)">
<path d="M6.53344 9.65138L5.90813 11.5H4.3125L6.98913 4.3125H8.83488L11.5 11.5H9.82244L9.19712 9.65138H6.53344ZM8.88231 8.59338L7.90625 5.68675H7.83581L6.85975 8.59338H8.88375H8.88231Z" fill="white"/>
<path d="M0 2.875C0 2.1125 0.302901 1.38124 0.842068 0.842068C1.38124 0.302901 2.1125 0 2.875 0H12.9375C13.7 0 14.4313 0.302901 14.9704 0.842068C15.5096 1.38124 15.8125 2.1125 15.8125 2.875V7.1875H20.125C20.8875 7.1875 21.6188 7.4904 22.1579 8.02957C22.6971 8.56874 23 9.3 23 10.0625V20.125C23 20.8875 22.6971 21.6188 22.1579 22.1579C21.6188 22.6971 20.8875 23 20.125 23H10.0625C9.3 23 8.56874 22.6971 8.02957 22.1579C7.4904 21.6188 7.1875 20.8875 7.1875 20.125V15.8125H2.875C2.1125 15.8125 1.38124 15.5096 0.842068 14.9704C0.302901 14.4313 0 13.7 0 12.9375V2.875ZM2.875 1.4375C2.49375 1.4375 2.12812 1.58895 1.85853 1.85853C1.58895 2.12812 1.4375 2.49375 1.4375 2.875V12.9375C1.4375 13.3187 1.58895 13.6844 1.85853 13.954C2.12812 14.2235 2.49375 14.375 2.875 14.375H12.9375C13.3187 14.375 13.6844 14.2235 13.954 13.954C14.2235 13.6844 14.375 13.3187 14.375 12.9375V2.875C14.375 2.49375 14.2235 2.12812 13.954 1.85853C13.6844 1.58895 13.3187 1.4375 12.9375 1.4375H2.875ZM13.1359 15.8053C13.4133 16.238 13.7137 16.6434 14.0415 17.0214C12.9662 17.848 11.6366 18.4604 10.0625 18.8787C10.3184 19.1906 10.7108 19.7915 10.8603 20.125C12.4775 19.6089 13.8503 18.9117 15.0089 17.9774C16.1259 18.9333 17.5088 19.6521 19.2208 20.0934C19.412 19.7282 19.8159 19.1259 20.125 18.814C18.5078 18.4503 17.1681 17.8164 16.0713 16.9683C17.0502 15.8944 17.8279 14.5949 18.4014 13.0051H20.125V11.5H15.8125V13.0051H16.9122C16.4551 14.2183 15.8484 15.2274 15.0837 16.0669C14.8725 15.8419 14.6733 15.6058 14.4871 15.3597C14.0815 15.6198 13.6167 15.7731 13.1359 15.8053Z" fill="white"/>
</g>
</g>
<defs>
<clipPath id="clip0_319_2">
<rect width="23" height="23" fill="white"/>
</clipPath>
</defs>
</svg>
