<svg id="Capa_1" data-name="Capa 1" xmlns="http://www.w3.org/2000/svg" viewBox="0 0 380 380"><defs><style>.cls-1{fill:none;}.cls-2{fill:#006c9c;}.cls-3{fill:#333;}</style></defs><path class="cls-1" d="M363.7,274.19V85.91c0-8.34-3.13-11.43-11.57-11.43H28c-8.68,0-11.71,3-11.71,11.66V277.85H363.7Zm-173.44-8.25a89.74,89.74,0,0,1-89.94-90c.05-49.17,40.29-89.43,89.39-89.43a89.81,89.81,0,0,1,90,90C279.67,225.63,239.39,265.91,190.26,265.94Z"/><path class="cls-1" d="M150.1,135.28a91.72,91.72,0,0,1,13.66-32.56c-25.93,7.79-50.27,35.64-51.79,67.73h32.32C146.24,158.47,147.76,146.8,150.1,135.28Z"/><path class="cls-1" d="M162.68,221c3,9.62,6.83,18.88,13.81,26.39,2.13,2.28,4.81,4,7.65,6.41V182.05H156.5C157,195.44,158.72,208.42,162.68,221Z"/><path class="cls-1" d="M111.78,182a78.29,78.29,0,0,0,15.84,41.73c9,12,27.83,25.47,35.84,25.6-13.17-20.52-17-43.6-18.33-67.33Z"/><path class="cls-1" d="M216.35,102.8c13.34,20.76,17.15,43.92,18.51,67.64h33.21C266.24,136.91,240.74,109.83,216.35,102.8Z"/><path class="cls-1" d="M155.87,170.41h28.27V99.23c-5.14,2.39-8.51,6.21-11.41,10.46-6.68,9.78-10.52,20.78-12.74,32.27C158.2,151.27,157.24,160.75,155.87,170.41Z"/><path class="cls-1" d="M221.51,149.87c-2.22-14.26-6.08-28-14.24-40.16-2.86-4.28-6.27-8.07-11.43-10.52v71.27h28C223,163.44,222.55,156.61,221.51,149.87Z"/><path class="cls-1" d="M223.65,182H195.77v71.31c6.35-3.13,10.24-8.13,13.49-13.67,7.57-12.89,11.06-27.09,12.94-41.74C222.87,192.68,223.17,187.39,223.65,182Z"/><path class="cls-1" d="M229.88,217.28a92.31,92.31,0,0,1-13.68,32.57c28.62-9,50.77-38.59,51.74-67.84H235.7C233.74,194.09,232.22,205.77,229.88,217.28Z"/><path class="cls-2" d="M16.3,290.31v11.28c0,9.76,2.72,12.5,12.37,12.5H351.26c1.37,0,2.75.06,4.11-.06,3.94-.37,7.57-3,7.91-6.8.49-5.62.12-11.32.12-16.92ZM69,308.09c-5.61,0-11.22,0-16.84,0s-11,0-16.47,0c-4.67,0-7.42-2.33-7.36-6.07s2.71-5.87,7.18-5.89q16.83,0,33.68,0c4.36,0,7,2.43,7,6.06S73.41,308.06,69,308.09Zm24.77,0c-.75,0-1.5,0-2.24,0V308a23.46,23.46,0,0,1-4.11,0c-3.22-.59-5.16-2.6-5.14-5.92s2-5.37,5.21-5.84a35.41,35.41,0,0,1,6.35-.08c3.82.15,6.33,2.6,6.3,6S97.57,307.89,93.75,308.09Z"/><path class="cls-3" d="M27.53,326.07H141c-1.36,8.21-2.66,16-4,24-8.23,0-16.08-.05-23.93,0-4.66,0-6.82,2.25-6.89,6.93-.06,3.58,0,7.16,0,11h-3.72c-6.74,0-13.48-.09-20.21.05a5.83,5.83,0,0,0-6,5.9c0,3.27,2.38,5.71,5.93,6,.87.07,1.75,0,2.62,0H295.16a29.79,29.79,0,0,0,3,0,6,6,0,0,0,5.62-5.92,5.87,5.87,0,0,0-5.57-5.94c-2.36-.19-4.74-.07-7.11-.07H273.85c0-3.39,0-6.25,0-9.11,0-7.18-1.65-8.86-8.73-8.86H243c-1.34-8.12-2.61-15.83-4-24H352.42c14.72,0,23.25-8.5,23.26-23.19V85.74c0-14.74-8.49-23.24-23.2-23.24H27.55C12.82,62.5,4.32,71,4.32,85.7V302.84C4.32,317.56,12.82,326.07,27.53,326.07ZM261.7,362.26v5.55H118.28v-5.55Zm-112.48-12.4c1.31-7.94,2.58-15.64,3.91-23.67h73.72c1.31,7.85,2.6,15.65,3.93,23.67Zm214.06-42.63c-.34,3.83-4,6.43-7.91,6.8-1.36.12-2.74.06-4.11.06H28.67c-9.65,0-12.37-2.74-12.37-12.5V290.31H363.4C363.4,295.91,363.77,301.61,363.28,307.23Zm-347-33.18V86.14c0-8.65,3-11.66,11.71-11.66H352.13c8.44,0,11.57,3.09,11.57,11.43V277.85H16.3Z"/><path class="cls-3" d="M69.17,296.14q-16.85-.08-33.68,0c-4.47,0-7.12,2.25-7.18,5.89s2.69,6.05,7.36,6.07c5.49,0,11,0,16.47,0s11.23,0,16.84,0c4.43,0,7.12-2.28,7.18-5.89S73.53,296.15,69.17,296.14Z"/><path class="cls-3" d="M93.82,296.15a35.41,35.41,0,0,0-6.35.08c-3.24.47-5.18,2.53-5.21,5.84s1.92,5.33,5.14,5.92a23.46,23.46,0,0,0,4.11,0v.06c.74,0,1.49,0,2.24,0,3.82-.2,6.35-2.56,6.37-5.95S97.64,296.3,93.82,296.15Z"/><path class="cls-3" d="M189.71,86.55c-49.1,0-89.34,40.26-89.39,89.43a89.74,89.74,0,0,0,89.94,90c49.13,0,89.41-40.31,89.42-89.43A89.81,89.81,0,0,0,189.71,86.55Zm-5.57,12.68v71.18H155.87c1.37-9.66,2.33-19.14,4.12-28.45,2.22-11.49,6.06-22.49,12.74-32.27C175.63,105.44,179,101.62,184.14,99.23Zm-20.38,3.49a91.72,91.72,0,0,0-13.66,32.56c-2.34,11.52-3.86,23.19-5.81,35.17H112C113.49,138.36,137.83,110.51,163.76,102.72Zm-36.14,121A78.29,78.29,0,0,1,111.78,182h33.35c1.36,23.73,5.16,46.81,18.33,67.33C155.45,249.23,136.65,235.77,127.62,223.76Zm56.52,30.08c-2.84-2.36-5.52-4.13-7.65-6.41-7-7.51-10.79-16.77-13.81-26.39-4-12.62-5.7-25.6-6.18-39h27.64Zm11.7-154.65c5.16,2.45,8.57,6.24,11.43,10.52,8.16,12.16,12,25.9,14.24,40.16,1,6.74,1.53,13.57,2.3,20.59h-28Zm-.07,154.15V182h27.88c-.48,5.36-.78,10.65-1.45,15.9-1.88,14.65-5.37,28.85-12.94,41.74C206,245.21,202.12,250.21,195.77,253.34Zm20.43-3.49a92.31,92.31,0,0,0,13.68-32.57c2.34-11.51,3.86-23.19,5.82-35.27h32.24C267,211.26,244.82,240.82,216.2,249.85Zm18.66-79.41c-1.36-23.72-5.17-46.88-18.51-67.64,24.39,7,49.89,34.11,51.72,67.64Z"/></svg>