<?xml version="1.0" encoding="utf-8"?>
<!-- Generator: Adobe Illustrator 24.1.0, SVG Export Plug-In . SVG Version: 6.00 Build 0)  -->
<svg version="1.1" id="Capa_1" xmlns="http://www.w3.org/2000/svg" xmlns:xlink="http://www.w3.org/1999/xlink" x="0px" y="0px"
	 viewBox="0 0 380 380" style="enable-background:new 0 0 380 380;" xml:space="preserve">
<style type="text/css">
	.st0{fill:none;}
	.st1{fill:#00B8D9;}
	.st2{fill:#AAAAAA;}
</style>
<path class="st0" d="M142.1,219.3v4.5H172c0-9.7,0-19.1,0-28.4c0-5.4,2.1-7.4,7.5-7.4c7.1,0,14.2,0,21.3,0c4.9,0,7,2.2,7.1,7.1
	c0,6.2,0,12.5,0,18.8v9.9h29.9v-4.6c0-33.2,0.1-66.5-0.1-99.7c0-7.2-0.5-14.5-1.5-21.6c-5-31.6-21.4-56.2-46.3-75.5
	c-0.3,0.1-0.5,0.2-0.7,0.3c-2.6,2.3-5.2,4.6-7.8,7C155,53.3,142,82.9,142.1,118.4C142.1,152.1,142.1,185.7,142.1,219.3z M189.9,67.9
	c23.2-0.1,42.1,18.6,42.2,41.8c0.1,23.2-18.6,42.1-41.8,42.2s-42.1-18.6-42.2-41.8c0-0.2,0-0.4,0-0.6
	C148.3,86.6,166.9,68,189.9,67.9z"/>
<path class="st0" d="M250.1,176.9v34.8h35C284,194.9,265.6,176.6,250.1,176.9z"/>
<path class="st0" d="M190,121.9c6.6,0,12-5.4,12-12c0-6.6-5.4-12-12-12c-6.5,0-11.9,5.2-12,11.8c-0.1,6.6,5.1,12.1,11.8,12.2
	C189.8,121.9,189.9,121.9,190,121.9z"/>
<path class="st0" d="M363.7,274V85.4c0-8.4-3.1-11.5-11.6-11.5H242.8c4.9,14.4,7.3,29.6,7.1,44.8c-0.2,15.1,0,30.2,0,45.4
	c1.2,0.2,2,0.4,2.9,0.5c24.8,4,44.2,25.9,45,50.8c0.2,6.3-1.8,8.4-8,8.5h-39.5c-1.5,11.3-1.5,11.3-12.1,12.2v41.6h125.5V274z"/>
<path class="st0" d="M195.8,200.1h-11.5v47.5h11.5V200.1z"/>
<path class="st0" d="M95.3,211.9h34.8c0-11.2,0-22,0-32.9c0-0.7-0.1-1.5-0.2-2.2C112.3,178,95.3,196.2,95.3,211.9z"/>
<path class="st0" d="M141.9,236.9c-3.6-1-7.7-0.9-9.8-3s-2-6.3-2.9-9.9H90.1c-6,0-8.2-2.2-7.8-8.2c1.2-19,9.7-34,26.1-43.8
	c6.5-3.9,14.1-5.9,21.8-9.1c0-14.1,0.1-29.2,0-44.3c-0.1-15.2,2.3-30.3,7.1-44.7H28.1c-8.9,0-11.8,3-11.8,12v191.8h125.6V236.9z"/>
<path class="st0" d="M189.6,139.9c16.6,0.2,30.2-13,30.4-29.6c0.2-16.6-13-30.2-29.6-30.4s-30.2,13-30.4,29.6c0,0.1,0,0.2,0,0.3
	C160,126.3,173.2,139.7,189.6,139.9z M190.2,85.9c13.3,0.1,23.9,10.9,23.8,24.1c-0.1,13.3-10.9,23.9-24.1,23.8
	c-13.2-0.1-23.9-10.9-23.8-24.1C166.1,96.6,176.9,85.9,190.2,85.9C190.2,85.9,190.2,85.9,190.2,85.9z"/>
<path class="st0" d="M154.3,236.1v41.6h71.4v-41.6H208c0,5.6,0,11,0,16.4c0,5.2-2.1,7.3-7.2,7.4c-7.1,0-14.2,0-21.3,0
	c-5.3,0-7.3-2.2-7.4-7.6s0-10.7,0-16.2L154.3,236.1z"/>
<path class="st1" d="M16.6,290.1c-0.1,0.4-0.2,0.8-0.3,1.2c0,4.4-0.1,8.8,0,13.1c0.1,6.3,4,9.5,11.3,9.5h324.9c1,0,2,0,3-0.1
	c4.3-0.4,7.9-3.6,8.1-8c0.3-5.2,0.1-10.4,0.1-15.8L16.6,290.1z M69.1,308c-5.6,0-11.2,0-16.8,0s-11.3,0-16.8,0
	c-4.4,0-7.1-2.3-7.1-5.9s2.6-6,7-6c11.2,0,22.5,0,33.7,0c4.4,0,7.1,2.3,7.1,5.9S73.5,307.9,69.1,308z M92.6,308c-1.4,0-2.8,0-4.1,0
	c-3.8-0.2-6.3-2.6-6.3-6s2.5-5.8,6.4-5.9c0.9,0,1.8,0,2.6,0h1.5c4.7,0.1,7.4,2.3,7.4,6S97.3,307.9,92.6,308z"/>
<path class="st2" d="M27.5,326H141c-1.4,8.2-2.7,16-4,24c-8.2,0-16.1,0-23.9,0c-4.7,0-6.8,2.3-6.9,7c-0.1,3.6,0,7.2,0,11h-3.7
	c-6.7,0-13.5-0.1-20.2,0.1c-3.2-0.1-5.9,2.4-6,5.7c0,0.1,0,0.2,0,0.3c0,3.3,2.4,5.7,5.9,6c0.9,0.1,1.8,0,2.6,0h210.4
	c1,0.1,2,0.1,3,0c3.1-0.2,5.6-2.8,5.6-5.9c0.1-3.2-2.4-5.8-5.6-6c-2.4-0.2-4.7-0.1-7.1-0.1h-17.3c0-3.4,0-6.2,0-9.1
	c0-7.2-1.6-8.9-8.7-8.9H243c-1.3-8.1-2.6-15.9-4-24h113.8c14.2,0,22.9-8.6,22.9-22.8c0-7.4,0-14.8,0-22.1c0-65.4,0-130.8,0-196.1
	c0.1-1.9-0.1-3.7-0.4-5.6C373.3,68.8,365,62,354,62c-37.6,0-75.1,0-112.7,0c-1.8,0-3.6,0.3-4.6-2c-9.5-20.5-25.3-35.7-42.2-50
	c-3.3-2.8-5.9-2.7-9.3,0.2c-4.4,3.8-8.8,7.7-13.1,11.6c-11.6,10.3-21.1,22.8-28.1,36.7c-1.3,2.7-2.8,3.5-5.7,3.5
	c-36.9-0.1-73.9-0.1-110.8-0.1c-14.7,0-23.2,8.5-23.2,23.3c0,65.3,0,130.5,0,195.8c0,7.2,0,14.5,0,21.7C4.3,317.5,12.8,326,27.5,326
	z M261.7,362.2v5.6H118.3v-5.6H261.7z M149.2,349.8c1.3-8,2.6-15.9,3.9-23.7h73.7c1.3,7.9,2.6,15.7,3.9,23.7H149.2z M363.6,306
	c-0.2,4.3-3.8,7.5-8.1,8c-1,0.1-2,0.1-3,0.1H27.6c-7.3,0-11.1-3.2-11.3-9.5c-0.1-4.4,0-8.8,0-13.1c0.1-0.4,0.1-0.8,0.3-1.2h347.1
	C363.6,295.5,363.9,300.8,363.6,306z M172,252.3c0,5.5,2.1,7.6,7.4,7.6c7.1,0,14.2,0,21.3,0c5.1,0,7.2-2.2,7.2-7.4
	c0-5.4,0-10.7,0-16.4h17.8v41.6h-71.3v-41.6H172C172,241.7,172,247,172,252.3z M184.2,247.7v-47.5h11.6v47.5H184.2z M238.2,236.2
	c10.6-0.9,10.6-0.9,12.1-12.2h39.5c6.2,0,8.2-2.1,8-8.5c-0.8-24.9-20.2-46.8-45-50.8c-0.8-0.1-1.7-0.3-2.9-0.5
	c0-15.2-0.1-30.3,0-45.4c0.1-15.2-2.3-30.4-7.1-44.8h109.4c8.4,0,11.6,3.1,11.6,11.5v192.4H238.2L238.2,236.2z M250,211.7v-34.8
	c15.5-0.3,33.9,18,35,34.8L250,211.7z M181.4,29.6c2.6-2.3,5.2-4.7,7.8-7c0.2-0.1,0.5-0.3,0.7-0.3c24.9,19.3,41.4,44,46.3,75.5
	c1,7.2,1.5,14.4,1.5,21.6c0.1,33.2,0.1,66.5,0.1,99.7v4.6H208v-9.9c0-6.2,0-12.5,0-18.8c0-4.9-2.2-7.1-7.1-7.1
	c-7.1-0.1-14.2,0-21.3,0c-5.4,0-7.5,2.1-7.5,7.4c0,9.4,0,18.7,0,28.4h-30v-4.5c0-33.6,0-67.2,0-100.8C142,82.9,155,53.3,181.4,29.6z
	 M16.3,273.4V85.9c0-9,2.9-12,11.8-12h109.1c-4.8,14.4-7.2,29.5-7.1,44.7c0.2,15.1,0,30.2,0,44.3c-7.7,3.1-15.3,5.2-21.8,9.1
	c-16.3,9.8-24.8,24.8-26,43.8c-0.4,6,1.8,8.2,7.8,8.2h39.1c1,3.7,0.9,7.9,2.9,9.9s6.2,2,9.8,3v40.8H16.3V273.4z M130.1,211.9H95.3
	c0-15.7,17-33.9,34.6-35.1c0.1,0.7,0.2,1.5,0.2,2.2C130.1,189.8,130.1,200.6,130.1,211.9z"/>
<path class="st2" d="M190.3,151.9c23.2-0.1,41.9-19,41.8-42.2s-19-41.9-42.2-41.8c-23,0.1-41.6,18.6-41.8,41.6
	c-0.2,23.2,18.4,42.2,41.6,42.4C189.9,151.9,190.1,151.9,190.3,151.9z M190.2,79.9c16.6,0.1,29.9,13.6,29.9,30.1
	s-13.6,29.9-30.1,29.9c-16.5-0.1-29.9-13.5-29.9-30.1C160.1,93.3,173.6,79.9,190.2,79.9C190.2,79.9,190.2,79.9,190.2,79.9z"/>
<path class="st2" d="M190,133.9c13.3,0,24-10.7,24.1-23.9c0-13.3-10.7-24-23.9-24.1c-13.2,0-24,10.6-24.1,23.9
	C166,123.1,176.7,133.9,190,133.9C190,133.9,190,133.9,190,133.9z M190.2,97.9c6.6,0.1,11.9,5.5,11.8,12.2
	c-0.1,6.6-5.5,11.9-12.2,11.8c-6.6-0.1-11.9-5.5-11.8-12.2c0,0,0-0.1,0-0.1C178.2,103.1,183.6,97.9,190.2,97.9L190.2,97.9z"/>
</svg>
