<svg id="Capa_1" data-name="Capa 1" xmlns="http://www.w3.org/2000/svg" viewBox="0 0 380 380"><defs><style>.cls-1{fill:none;}.cls-2{fill:#006c9c;}.cls-3{fill:#333;}</style></defs><path class="cls-1" d="M142.08,219.28v4.52H172c0-9.69,0-19.05,0-28.4,0-5.36,2.12-7.42,7.53-7.44,7.11,0,14.22,0,21.33,0,4.87,0,7,2.23,7.06,7.15,0,6.25,0,12.5,0,18.75v9.9h29.95v-4.6c0-33.24.09-66.48-.06-99.72a143.53,143.53,0,0,0-1.5-21.64c-5-31.56-21.44-56.18-46.34-75.51a3,3,0,0,0-.73.33q-3.93,3.47-7.84,7C155,53.3,142,82.93,142.07,118.43Q142.15,168.86,142.08,219.28ZM189.92,67.94a42,42,0,1,1-41.84,41.6A42,42,0,0,1,189.92,67.94Z"/><path class="cls-1" d="M250.07,176.89V211.7h35C284,194.89,265.57,176.63,250.07,176.89Z"/><path class="cls-1" d="M190,121.92a12,12,0,1,0-12-12.24A12,12,0,0,0,190,121.92Z"/><path class="cls-1" d="M363.72,274V85.4c0-8.37-3.13-11.46-11.56-11.46H242.82a136.44,136.44,0,0,1,7.12,44.85c-.16,15.08,0,30.17,0,45.39,1.2.22,2,.39,2.87.52,24.78,4,44.2,25.92,45,50.8.21,6.32-1.78,8.44-8,8.46H250.28c-1.5,11.34-1.5,11.34-12.07,12.22v41.61H363.72Z"/><path class="cls-1" d="M195.8,200.13H184.27v47.53H195.8Z"/><path class="cls-1" d="M95.27,211.85H130.1c0-11.2,0-22,0-32.88,0-.73-.14-1.46-.21-2.19C112.27,178,95.27,196.17,95.27,211.85Z"/><path class="cls-1" d="M141.9,236.88c-3.55-1-7.73-.93-9.78-3s-2-6.26-2.94-9.92H90.07c-6,0-8.2-2.17-7.83-8.22,1.18-19,9.73-34,26.07-43.77,6.49-3.88,14.08-5.92,21.79-9.05,0-14.07.13-29.17,0-44.27a136.75,136.75,0,0,1,7.1-44.71H28.08c-8.87,0-11.8,3-11.8,12V277.7H141.9Z"/><path class="cls-1" d="M189.62,139.94a30,30,0,1,0-29.56-30.09A30,30,0,0,0,189.62,139.94Zm.58-54a24,24,0,1,1-24.15,23.88A24,24,0,0,1,190.2,85.94Z"/><path class="cls-1" d="M154.33,236.15v41.64h71.39V236.23H208c0,5.63,0,11,0,16.35,0,5.17-2.15,7.34-7.23,7.37q-10.66.07-21.33,0c-5.3,0-7.34-2.16-7.36-7.62s0-10.68,0-16.19Z"/><path class="cls-2" d="M16.59,290.15a7,7,0,0,0-.28,1.23c0,4.37-.1,8.75,0,13.12.14,6.31,4,9.47,11.28,9.47H352.45a27.13,27.13,0,0,0,3-.06c4.34-.44,7.89-3.63,8.13-8,.29-5.2.07-10.42.07-15.81ZM69.12,308c-5.62.05-11.23,0-16.85,0S41,308,35.43,308c-4.43,0-7.1-2.3-7.14-5.94s2.64-6,7-6q16.85-.06,33.68,0c4.43,0,7.11,2.3,7.14,5.93S73.49,307.92,69.12,308Zm23.5,0c-1.37,0-2.75,0-4.12,0-3.81-.19-6.31-2.61-6.29-6s2.52-5.76,6.36-5.94c.88-.05,1.75,0,2.62,0h1.5c4.7.06,7.45,2.29,7.42,6S97.35,307.92,92.62,308Z"/><path class="cls-3" d="M27.53,326H141c-1.37,8.22-2.67,16-4,24-8.24,0-16.09,0-23.95,0-4.65,0-6.8,2.26-6.88,6.95-.06,3.58,0,7.17,0,11h-3.72c-6.74,0-13.48-.08-20.22.06a5.83,5.83,0,0,0-6,5.92c0,3.27,2.38,5.71,5.93,6,.87.07,1.75,0,2.62,0h210.4a29.79,29.79,0,0,0,3,0,6,6,0,0,0,5.62-5.93,5.86,5.86,0,0,0-5.56-5.95c-2.36-.19-4.74-.07-7.11-.07H273.86c0-3.39,0-6.25,0-9.11,0-7.2-1.65-8.88-8.73-8.89H243c-1.34-8.13-2.62-15.86-4-24H352.81c14.21,0,22.88-8.65,22.88-22.84q0-11.07,0-22.14,0-98.07,0-196.13a29.84,29.84,0,0,0-.36-5.6C373.31,68.75,365,62,354,62q-56.34-.06-112.68,0c-1.83,0-3.55.29-4.63-2-9.49-20.49-25.28-35.71-42.16-50-3.33-2.8-5.92-2.73-9.31.25Q178.6,16,172.08,21.88A122.11,122.11,0,0,0,144,58.53c-1.3,2.65-2.76,3.48-5.67,3.48q-55.41-.16-110.81-.07c-14.72,0-23.21,8.51-23.21,23.25q0,97.91,0,195.8,0,10.86,0,21.73C4.31,317.46,12.81,326,27.53,326Zm234.2,36.2v5.56H118.29v-5.56ZM149.21,349.81c1.33-8,2.63-15.86,3.93-23.72h73.71c1.31,7.86,2.61,15.68,3.94,23.72ZM363.57,306c-.24,4.32-3.79,7.51-8.13,8a27.13,27.13,0,0,1-3,.06H27.59c-7.33,0-11.14-3.16-11.28-9.47-.1-4.37,0-8.75,0-13.12a7,7,0,0,1,.28-1.23H363.64C363.64,295.54,363.86,300.76,363.57,306ZM172,252.34c0,5.46,2.06,7.59,7.36,7.62q10.66.06,21.33,0c5.08,0,7.2-2.2,7.23-7.37,0-5.36,0-10.72,0-16.35h17.75v41.56H154.33V236.15H172C172,241.66,172,247,172,252.34Zm12.23-4.68V200.13H195.8v47.53Zm53.94-11.48c10.57-.88,10.57-.88,12.07-12.22h39.51c6.21,0,8.2-2.14,8-8.46-.81-24.88-20.23-46.79-45-50.8-.84-.13-1.67-.3-2.87-.52,0-15.22-.12-30.31,0-45.39a136.44,136.44,0,0,0-7.12-44.85H352.16c8.43,0,11.56,3.09,11.56,11.46V277.79H238.21Zm11.86-24.48V176.89c15.5-.26,33.92,18,35,34.81ZM181.45,29.6q3.9-3.51,7.84-7a3,3,0,0,1,.73-.33c24.9,19.33,41.36,44,46.34,75.51a143.53,143.53,0,0,1,1.5,21.64c.15,33.24.06,66.48.06,99.72v4.6H208v-9.9c0-6.25,0-12.5,0-18.75,0-4.92-2.19-7.11-7.06-7.15-7.11-.05-14.22,0-21.33,0-5.41,0-7.51,2.08-7.53,7.44,0,9.35,0,18.71,0,28.4H142.08v-4.52q0-50.43,0-100.85C142,82.93,155,53.3,181.45,29.6ZM16.28,273.36V85.91c0-9,2.93-12,11.8-12H137.16a136.75,136.75,0,0,0-7.1,44.71c.17,15.1,0,30.2,0,44.27-7.71,3.13-15.3,5.17-21.79,9.05C92,181.73,83.42,196.7,82.24,215.74c-.37,6,1.84,8.21,7.83,8.22h39.11c1,3.66.89,7.85,2.94,9.92s6.23,2,9.78,3V277.7H16.28ZM130.1,211.85H95.27c0-15.68,17-33.87,34.61-35.07.07.73.21,1.46.21,2.19C130.1,189.81,130.1,200.65,130.1,211.85Z"/><path class="cls-3" d="M190.27,151.94a42,42,0,1,0-42.19-42.4A42,42,0,0,0,190.27,151.94Zm-.07-72a30,30,0,1,1-30.14,29.91A30,30,0,0,1,190.2,79.94Z"/><path class="cls-3" d="M69,296q-16.83-.06-33.68,0c-4.4,0-7.07,2.38-7,6S31,307.93,35.43,308c5.61.05,11.23,0,16.84,0s11.23,0,16.85,0c4.37,0,7.07-2.41,7-6S73.44,296,69,296Z"/><path class="cls-3" d="M92.69,296h-1.5c-.87,0-1.74,0-2.62,0-3.84.18-6.34,2.53-6.36,5.94s2.48,5.83,6.29,6c1.37.07,2.75,0,4.12,0,4.73-.05,7.47-2.24,7.49-6S97.39,296,92.69,296Z"/><path class="cls-3" d="M190,133.94a24,24,0,1,0-23.94-24.12A24,24,0,0,0,190,133.94Zm.17-36A12,12,0,1,1,178,109.68,12,12,0,0,1,190.16,98Z"/></svg>