<?xml version="1.0" encoding="utf-8"?>
<!-- Generator: Adobe Illustrator 24.1.0, SVG Export Plug-In . SVG Version: 6.00 Build 0)  -->
<svg version="1.1" id="Capa_1" xmlns="http://www.w3.org/2000/svg" xmlns:xlink="http://www.w3.org/1999/xlink" x="0px" y="0px"
	 viewBox="0 0 380 380" style="enable-background:new 0 0 380 380;" xml:space="preserve">
<style type="text/css">
	.st0{fill:none;}
	.st1{fill:#00B8D9;}
	.st2{fill:#AAAAAA;}
</style>
<path class="st0" d="M363.7,274.2V85.9c0-8.3-3.1-11.4-11.6-11.4H28c-8.7,0-11.7,3-11.7,11.7v191.7h347.4V274.2z M190.3,265.9
	c-49.6,0.1-89.8-40-89.9-89.5c0-0.2,0-0.3,0-0.5c0.1-49.2,40.3-89.4,89.4-89.4c49.6-0.1,89.9,40,90,89.6c0,0.1,0,0.3,0,0.4
	C279.7,225.6,239.4,265.9,190.3,265.9L190.3,265.9z"/>
<path class="st0" d="M150.1,135.3c2.4-11.6,7-22.7,13.7-32.6c-25.9,7.8-50.3,35.6-51.8,67.7h32.3
	C146.2,158.5,147.8,146.8,150.1,135.3z"/>
<path class="st0" d="M162.7,221c3,9.6,6.8,18.9,13.8,26.4c2.1,2.3,4.8,4,7.6,6.4v-71.8h-27.6C157,195.4,158.7,208.4,162.7,221z"/>
<path class="st0" d="M111.8,182c1.1,15.2,6.6,29.7,15.8,41.7c9,12,27.8,25.5,35.8,25.6c-13.2-20.5-17-43.6-18.3-67.3H111.8z"/>
<path class="st0" d="M216.4,102.8c13.3,20.8,17.1,43.9,18.5,67.6h33.2C266.2,136.9,240.7,109.8,216.4,102.8z"/>
<path class="st0" d="M155.9,170.4h28.3V99.2c-5.1,2.4-8.5,6.2-11.4,10.5c-6.7,9.8-10.5,20.8-12.7,32.3
	C158.2,151.3,157.2,160.8,155.9,170.4z"/>
<path class="st0" d="M221.5,149.9c-2.2-14.3-6.1-28-14.2-40.2c-2.9-4.3-6.3-8.1-11.4-10.5v71.3h28
	C223,163.4,222.6,156.6,221.5,149.9z"/>
<path class="st0" d="M223.6,182h-27.9v71.3c6.4-3.1,10.2-8.1,13.5-13.7c7.6-12.9,11.1-27.1,12.9-41.7
	C222.9,192.7,223.2,187.4,223.6,182z"/>
<path class="st0" d="M229.9,217.3c-2.4,11.6-7.1,22.7-13.7,32.6c28.6-9,50.8-38.6,51.7-67.8h-32.2
	C233.7,194.1,232.2,205.8,229.9,217.3z"/>
<path class="st1" d="M16.3,290.3v11.3c0,9.8,2.7,12.5,12.4,12.5h322.6c1.4,0,2.8,0.1,4.1-0.1c3.9-0.4,7.6-3,7.9-6.8
	c0.5-5.6,0.1-11.3,0.1-16.9H16.3z M69,308.1c-5.6,0-11.2,0-16.8,0s-11,0-16.5,0c-4.7,0-7.4-2.3-7.4-6.1s2.7-5.9,7.2-5.9
	c11.2,0,22.4,0,33.7,0c4.4,0,7,2.4,7,6.1S73.4,308.1,69,308.1z M93.8,308.1c-0.8,0-1.5,0-2.2,0V308c-1.4,0.1-2.7,0.1-4.1,0
	c-3.2-0.6-5.2-2.6-5.1-5.9s2-5.4,5.2-5.8c2.1-0.2,4.2-0.2,6.3-0.1c3.8,0.1,6.3,2.6,6.3,6S97.6,307.9,93.8,308.1L93.8,308.1z"/>
<path class="st2" d="M27.5,326.1H141c-1.4,8.2-2.7,16-4,24c-8.2,0-16.1,0-23.9,0c-4.7,0-6.8,2.2-6.9,6.9c-0.1,3.6,0,7.2,0,11h-3.7
	c-6.7,0-13.5-0.1-20.2,0c-3.2-0.1-5.9,2.4-6,5.7c0,0.1,0,0.2,0,0.2c0,3.3,2.4,5.7,5.9,6c0.9,0.1,1.8,0,2.6,0h210.4c1,0.1,2,0.1,3,0
	c3.1-0.2,5.6-2.8,5.6-5.9c0-3.2-2.4-5.8-5.6-5.9c-2.4-0.2-4.7-0.1-7.1-0.1h-17.2c0-3.4,0-6.2,0-9.1c0-7.2-1.6-8.9-8.7-8.9H243
	c-1.3-8.1-2.6-15.8-4-24h113.4c14.7,0,23.2-8.5,23.3-23.2V85.7c0-14.7-8.5-23.2-23.2-23.2H27.5C12.8,62.5,4.3,71,4.3,85.7v217.1
	C4.3,317.6,12.8,326.1,27.5,326.1z M261.7,362.3v5.5H118.3v-5.5H261.7z M149.2,349.9c1.3-7.9,2.6-15.6,3.9-23.7h73.7
	c1.3,7.9,2.6,15.6,3.9,23.7H149.2z M363.3,307.2c-0.3,3.8-4,6.4-7.9,6.8c-1.4,0.1-2.7,0.1-4.1,0.1H28.7c-9.6,0-12.4-2.7-12.4-12.5
	v-11.3h347.1C363.4,295.9,363.8,301.6,363.3,307.2z M16.3,274.1V86.1c0-8.7,3-11.7,11.7-11.7h324.1c8.4,0,11.6,3.1,11.6,11.4v191.9
	H16.3L16.3,274.1z"/>
<path class="st2" d="M189.7,86.6c-49.1,0-89.3,40.3-89.4,89.4c-0.1,49.6,39.9,89.9,89.5,90c0.2,0,0.3,0,0.5,0
	c49.1,0,89.4-40.3,89.4-89.4c0.1-49.6-40-89.9-89.6-90C189.9,86.5,189.8,86.5,189.7,86.6z M184.1,99.2v71.2h-28.3
	c1.4-9.7,2.3-19.1,4.1-28.4c2.2-11.5,6.1-22.5,12.7-32.3C175.6,105.4,179,101.6,184.1,99.2z M163.8,102.7
	c-6.6,9.9-11.3,20.9-13.7,32.6c-2.3,11.5-3.9,23.2-5.8,35.2H112C113.5,138.4,137.8,110.5,163.8,102.7z M127.6,223.7
	c-9.2-12.1-14.7-26.6-15.8-41.7h33.4c1.4,23.7,5.2,46.8,18.3,67.3C155.4,249.2,136.6,235.8,127.6,223.7L127.6,223.7z M184.1,253.8
	c-2.8-2.4-5.5-4.1-7.6-6.4c-7-7.5-10.8-16.8-13.8-26.4c-4-12.6-5.7-25.6-6.2-39h27.6L184.1,253.8z M195.8,99.2
	c5.2,2.4,8.6,6.2,11.4,10.5c8.2,12.2,12,25.9,14.2,40.2c1,6.7,1.5,13.6,2.3,20.6h-28L195.8,99.2z M195.8,253.3V182h27.9
	c-0.5,5.4-0.8,10.6-1.4,15.9c-1.9,14.6-5.4,28.9-12.9,41.7C206,245.2,202.1,250.2,195.8,253.3L195.8,253.3z M216.2,249.8
	c6.6-9.9,11.3-20.9,13.7-32.6c2.3-11.5,3.9-23.2,5.8-35.3h32.2C267,211.3,244.8,240.8,216.2,249.8L216.2,249.8z M234.9,170.4
	c-1.4-23.7-5.2-46.9-18.5-67.6c24.4,7,49.9,34.1,51.7,67.6H234.9z"/>
</svg>
