<?xml version="1.0" encoding="utf-8"?>
<!-- Generator: Adobe Illustrator 24.1.0, SVG Export Plug-In . SVG Version: 6.00 Build 0)  -->
<svg version="1.1" id="Capa_1" xmlns="http://www.w3.org/2000/svg" xmlns:xlink="http://www.w3.org/1999/xlink" x="0px" y="0px"
	 viewBox="0 0 380 380" style="enable-background:new 0 0 380 380;" xml:space="preserve">
<style type="text/css">
	.st0{fill:none;}
	.st1{fill:#00B8D9;}
	.st2{fill:#AAAAAA;}
</style>
<path class="st0" d="M287.4,182.4c-5.1-0.1-10.2,0-15.8,0c1.9,3.8,3.4,6.9,5,10c0.5,0.9,1.3,1.6,2.4,1.8c4.8,0.2,9.6,0.1,15,0.1
	c-1.9-3.9-3.6-7.3-5.3-10.7C288.5,183.1,287.9,182.4,287.4,182.4z"/>
<path class="st0" d="M286.1,170.3c0.9,0,1.8-0.3,2.5-1c1.9-3.4,3.5-7,5.4-10.9c-5.2,0-9.8-0.1-14.4,0.1c-1.1,0.1-2.2,0.7-2.8,1.7
	c-1.8,3.1-3.3,6.4-5.2,10.2C276.9,170.3,281.5,170.4,286.1,170.3z"/>
<path class="st0" d="M176.3,167.3c0.5,1.2,1.7,2.9,2.6,2.9c9.4,0.2,18.9,0.1,28.4,0.1c-0.9-20.9-20.6-47.9-53.4-47.9
	c-29.8,0.1-53.8,24.3-53.8,54c0.1,29.8,24.3,53.8,54,53.8c0.3,0,0.6,0,0.9,0c33.3-0.6,51.6-28.5,52.2-47.9c-8.7,0-17.4,0.1-26.1-0.1
	c-2.8-0.1-4,0.8-5.1,3.4c-5.4,12-19.6,17.4-31.6,11.9c-12-5.4-17.4-19.6-11.9-31.6c4.5-9.1,12.1-13.9,22.3-13.6
	S172,158.1,176.3,167.3z"/>
<path class="st0" d="M158.5,254.1c48.2-3.2,72.6-44,72.7-71.6h-11.4c-2.2,18.6-10.3,34.1-25,45.6s-31.9,15.9-50.6,13.4
	c-29.9-3.9-54.4-30.8-55.9-61.4c-1.6-32.4,19.8-60.9,51-68c15.4-3.5,30.3-1.9,44.4,5.4c21.4,11.1,33.1,29.1,36.2,52.7h11.5
	c-1.6-35.9-33.7-72.9-79.9-71.7c-43,1.1-77.1,38.1-75.2,81.5C78.2,222.9,115.7,256.9,158.5,254.1z"/>
<path class="st0" d="M154.7,170.3c2.9-0.1,5.9,0,9.5,0c-4.1-5.6-9.6-7.3-14.9-5c-6.1,2.7-8.8,9.8-6.1,15.9c1.8,4,5.6,6.7,9.9,7.1
	c4.7,0.4,9.1-2.1,10.4-5.9c-2.9,0-5.8,0-8.6,0c-4.1-0.1-6.7-2.4-6.8-5.9S150.6,170.4,154.7,170.3z"/>
<path class="st1" d="M16.3,290.3v11.3c0,9.8,2.7,12.5,12.4,12.5h322.6c1.4,0,2.8,0.1,4.1-0.1c3.9-0.4,7.6-3,7.9-6.8
	c0.5-5.6,0.1-11.3,0.1-16.9H16.3z M69,308.1c-5.6,0-11.2,0-16.8,0s-11,0-16.5,0c-4.7,0-7.4-2.3-7.4-6.1s2.7-5.9,7.2-5.9
	c11.2,0,22.4,0,33.7,0c4.4,0,7,2.4,7,6.1S73.4,308.1,69,308.1z M93.8,308.1c-0.8,0-1.5,0-2.2,0V308c-1.4,0.1-2.7,0.1-4.1,0
	c-3.2-0.6-5.2-2.6-5.1-5.9s2-5.4,5.2-5.8c2.1-0.2,4.2-0.2,6.3-0.1c3.8,0.1,6.3,2.6,6.3,6S97.6,307.9,93.8,308.1L93.8,308.1z"/>
<path class="st2" d="M27.5,326.1H141c-1.4,8.2-2.7,16-4,24c-8.2,0-16.1,0-23.9,0c-4.7,0-6.8,2.2-6.9,6.9c-0.1,3.6,0,7.2,0,11h-3.7
	c-6.7,0-13.5-0.1-20.2,0c-3.2-0.1-5.9,2.4-6,5.7c0,0.1,0,0.2,0,0.2c0,3.3,2.4,5.7,5.9,6c0.9,0.1,1.8,0,2.6,0h210.4c1,0.1,2,0.1,3,0
	c3.1-0.2,5.6-2.8,5.6-5.9c0-3.2-2.4-5.8-5.6-5.9c-2.4-0.2-4.7-0.1-7.1-0.1h-17.2c0-3.4,0-6.2,0-9.1c0-7.2-1.6-8.9-8.7-8.9H243
	c-1.3-8.1-2.6-15.8-4-24h113.4c14.7,0,23.2-8.5,23.3-23.2V85.7c0-14.7-8.5-23.2-23.2-23.2H27.5C12.8,62.5,4.3,71,4.3,85.7v217.1
	C4.3,317.6,12.8,326.1,27.5,326.1z M261.7,362.3v5.5H118.3v-5.5H261.7z M149.2,349.9c1.3-7.9,2.6-15.6,3.9-23.7h73.7
	c1.3,7.9,2.6,15.6,3.9,23.7H149.2z M363.3,307.2c-0.3,3.8-4,6.4-7.9,6.8c-1.4,0.1-2.7,0.1-4.1,0.1H28.7c-9.6,0-12.4-2.7-12.4-12.5
	v-11.3h347.1C363.4,295.9,363.8,301.6,363.3,307.2z M28,74.5h324.1c8.4,0,11.6,3.1,11.6,11.4v191.9H16.3V86.1
	C16.3,77.5,19.3,74.5,28,74.5z"/>
<path class="st2" d="M141,265.2c21.3,3.4,43.2-1.2,61.2-13.1c25.2-16.3,38.7-39.9,41.7-69.8c4.1,0,8-0.2,11.8,0.1
	c1.5,0.2,2.8,1,3.6,2.3c3,5.6,5.9,11.3,8.6,17c1.2,3,4.2,4.9,7.4,4.6c9.1-0.1,18.2,0,27.3-0.1c6.2,0,8.8-4.1,6.1-9.7
	s-5.3-11-8.2-16.4c-1.5-2.7-1.6-4.8-0.1-7.6c3-5.3,5.6-10.9,8.2-16.4c2.8-5.9,0.3-9.9-6.2-9.9c-9,0-18,0.1-27-0.1
	c-3.7-0.1-6,1.5-7.6,4.8c-2.7,5.6-5.5,11.2-8.4,16.7c-0.7,1.2-1.8,2.1-3.1,2.4c-4,0.3-8,0.1-12.4,0.1c-2.4-25.7-12.9-47.1-32.7-63.3
	S168.5,84.5,143,87.1c-42.3,4.3-77.5,42.3-78.8,85.5C62.9,219.1,95.2,258.3,141,265.2z M279.1,194.2c-1-0.2-1.9-0.9-2.4-1.8
	c-1.7-3-3.2-6.2-5-10c5.6,0,10.7,0,15.8,0c0.4,0,1,0.6,1.3,1.1c1.7,3.4,3.4,6.8,5.3,10.7C288.6,194.3,283.8,194.4,279.1,194.2
	L279.1,194.2z M276.8,160.1c0.7-0.9,1.7-1.5,2.8-1.7c4.6-0.2,9.2-0.1,14.4-0.1c-1.9,3.9-3.6,7.5-5.4,10.9c-0.7,0.7-1.6,1-2.5,1
	c-4.6,0.1-9.2,0-14.5,0C273.5,166.5,275,163.2,276.8,160.1L276.8,160.1z M151.5,98.5c46.2-1.2,78.3,35.8,79.9,71.7h-11.5
	c-3.2-23.6-14.8-41.6-36.2-52.7c-14-7.3-29-8.9-44.4-5.4c-31.2,7.1-52.6,35.7-51,68c1.5,30.6,26,57.4,55.9,61.4
	c18.8,2.5,35.7-1.7,50.6-13.4s22.8-27,25-45.6h11.4c-0.1,27.6-24.5,68.4-72.7,71.6c-42.7,2.9-80.3-31.1-82.2-74.1
	C74.4,136.6,108.5,99.6,151.5,98.5z M154.9,182.3c2.9,0.1,5.7,0,8.6,0c-1.3,3.9-5.6,6.3-10.4,5.9c-6.6-0.6-11.5-6.4-10.9-13
	c0.4-4.3,3.1-8.1,7.1-9.9c5.3-2.3,10.8-0.7,14.9,5c-3.6,0-6.6-0.1-9.5,0c-4.1,0.1-6.7,2.5-6.6,6S150.8,182.2,154.9,182.3
	L154.9,182.3z M154.8,152.5c-10.1-0.3-17.8,4.4-22.3,13.6c-5.6,12-0.4,26.2,11.6,31.7s26.2,0.4,31.7-11.6c0.1-0.2,0.1-0.3,0.2-0.5
	c1.1-2.6,2.2-3.5,5.1-3.4c8.7,0.2,17.4,0.1,26.1,0.1c-0.6,19.4-18.9,47.2-52.2,47.9c-29.8,0.6-54.3-23.1-54.9-52.8
	c-0.6-29.8,23.1-54.3,52.8-54.9c0.3,0,0.6,0,0.9,0c32.8,0,52.5,27,53.4,47.9c-9.5,0-18.9,0.1-28.4-0.1c-0.9,0-2-1.8-2.6-2.9
	C172,158.1,164.9,152.8,154.8,152.5L154.8,152.5z"/>
</svg>
