<svg id="Capa_1" data-name="Capa 1" xmlns="http://www.w3.org/2000/svg" viewBox="0 0 380 380"><defs><style>.cls-1{fill:none;}.cls-2{fill:#006c9c;}.cls-3{fill:#333;}</style></defs><path class="cls-1" d="M287.42,182.42c-5.12-.08-10.24,0-15.8,0,1.89,3.79,3.36,6.94,5.05,10a3.64,3.64,0,0,0,2.35,1.84c4.81.18,9.63.09,15,.09-1.93-3.9-3.6-7.33-5.34-10.72C288.47,183.07,287.86,182.43,287.42,182.42Z"/><path class="cls-1" d="M286.07,170.28a3.37,3.37,0,0,0,2.51-1c1.88-3.44,3.53-7,5.44-10.91-5.21,0-9.81-.09-14.41.08a4,4,0,0,0-2.82,1.68c-1.78,3.1-3.27,6.37-5.19,10.22C276.86,170.32,281.47,170.37,286.07,170.28Z"/><path class="cls-1" d="M176.31,167.28c.54,1.16,1.67,2.89,2.57,2.91,9.44.21,18.9.13,28.36.13-.93-20.91-20.58-47.92-53.4-47.9A53.88,53.88,0,1,0,155,230.17c33.27-.62,51.59-28.46,52.21-47.87-8.71,0-17.42.15-26.12-.08-2.84-.07-4,.84-5.09,3.43A23.87,23.87,0,1,1,132.49,166c4.51-9.12,12.14-13.86,22.29-13.56S172,158.07,176.31,167.28Z"/><path class="cls-1" d="M158.46,254.06c48.22-3.22,72.6-44,72.69-71.61H219.74c-2.19,18.62-10.26,34.08-25,45.63S162.87,244,144.12,241.47c-29.88-3.95-54.39-30.78-55.87-61.37-1.57-32.35,19.82-60.95,51-68,15.39-3.48,30.32-1.87,44.36,5.39,21.4,11.06,33.07,29.1,36.23,52.65h11.54c-1.63-35.88-33.73-72.86-79.89-71.65-43,1.13-77.11,38.07-75.21,81.5C78.16,222.92,115.74,256.91,158.46,254.06Z"/><path class="cls-1" d="M154.73,170.34c2.94-.07,5.89,0,9.5,0-4.13-5.65-9.59-7.27-14.92-5a12,12,0,0,0,3.83,22.91c4.74.36,9.09-2.08,10.35-5.95-2.91,0-5.77,0-8.62,0-4.12-.09-6.72-2.4-6.77-5.91S150.65,170.44,154.73,170.34Z"/><path class="cls-2" d="M16.3,290.31v11.28c0,9.76,2.72,12.5,12.37,12.5H351.26c1.37,0,2.75.06,4.11-.06,3.94-.37,7.57-3,7.91-6.8.49-5.62.12-11.32.12-16.92ZM69,308.09c-5.61,0-11.22,0-16.84,0s-11,0-16.47,0c-4.67,0-7.42-2.33-7.36-6.07s2.71-5.87,7.18-5.89q16.83,0,33.68,0c4.36,0,7,2.43,7,6.06S73.41,308.06,69,308.09Zm24.77,0c-.75,0-1.5,0-2.24,0V308a23.46,23.46,0,0,1-4.11,0c-3.22-.59-5.16-2.6-5.14-5.92s2-5.37,5.21-5.84a35.41,35.41,0,0,1,6.35-.08c3.82.15,6.33,2.6,6.3,6S97.57,307.89,93.75,308.09Z"/><path class="cls-3" d="M27.53,326.07H141c-1.36,8.21-2.66,16-4,24-8.23,0-16.08-.05-23.93,0-4.66,0-6.82,2.25-6.89,6.93-.06,3.58,0,7.16,0,11h-3.72c-6.74,0-13.48-.09-20.21.05a5.83,5.83,0,0,0-6,5.9c0,3.27,2.38,5.71,5.93,6,.87.07,1.75,0,2.62,0H295.16a29.79,29.79,0,0,0,3,0,6,6,0,0,0,5.62-5.92,5.87,5.87,0,0,0-5.57-5.94c-2.36-.19-4.74-.07-7.11-.07H273.85c0-3.39,0-6.25,0-9.11,0-7.18-1.65-8.86-8.73-8.86H243c-1.34-8.12-2.61-15.83-4-24H352.42c14.72,0,23.25-8.5,23.26-23.19V85.74c0-14.74-8.49-23.24-23.2-23.24H27.55C12.82,62.5,4.32,71,4.32,85.7V302.84C4.32,317.56,12.82,326.07,27.53,326.07ZM261.7,362.26v5.55H118.28v-5.55Zm-112.48-12.4c1.31-7.94,2.58-15.64,3.91-23.67h73.72c1.31,7.85,2.6,15.65,3.93,23.67Zm214.06-42.63c-.34,3.83-4,6.43-7.91,6.8-1.36.12-2.74.06-4.11.06H28.67c-9.65,0-12.37-2.74-12.37-12.5V290.31H363.4C363.4,295.91,363.77,301.61,363.28,307.23ZM28,74.48H352.13c8.44,0,11.57,3.09,11.57,11.43V277.85H16.3V86.14C16.3,77.49,19.33,74.48,28,74.48Z"/><path class="cls-3" d="M141,265.19a86.15,86.15,0,0,0,61.18-13.12c25.22-16.28,38.68-39.88,41.72-69.76,4.1,0,8-.19,11.8.1a5.18,5.18,0,0,1,3.59,2.26c3,5.57,5.85,11.28,8.58,17a7.28,7.28,0,0,0,7.35,4.61c9.11-.11,18.22,0,27.33-.05,6.24,0,8.8-4.12,6.09-9.73s-5.31-11-8.24-16.36c-1.46-2.66-1.63-4.8-.09-7.55,3-5.32,5.58-10.86,8.25-16.35,2.84-5.85.32-9.85-6.21-9.89-9,0-18,.09-26.95-.05-3.74-.06-6,1.46-7.61,4.8q-4,8.46-8.4,16.7a4.83,4.83,0,0,1-3.14,2.39c-4,.29-8,.11-12.4.11-2.4-25.74-12.9-47.08-32.71-63.32S168.51,84.52,143,87.12c-42.31,4.31-77.51,42.35-78.77,85.52C62.91,219.15,95.18,258.29,141,265.19Zm138.06-71a3.64,3.64,0,0,1-2.35-1.84c-1.69-3-3.16-6.19-5.05-10,5.56,0,10.68,0,15.8,0,.44,0,1.05.65,1.3,1.14,1.74,3.39,3.41,6.82,5.34,10.72C288.65,194.28,283.83,194.37,279,194.19Zm-2.23-34.09a4,4,0,0,1,2.82-1.68c4.6-.17,9.2-.08,14.41-.08-1.91,3.91-3.56,7.47-5.44,10.91a3.37,3.37,0,0,1-2.51,1c-4.6.09-9.21,0-14.47,0C273.52,166.47,275,163.2,276.79,160.1ZM151.49,98.48c46.16-1.21,78.26,35.77,79.89,71.65H219.84c-3.16-23.55-14.83-41.59-36.23-52.65-14-7.26-29-8.87-44.36-5.39-31.18,7.06-52.57,35.66-51,68,1.48,30.59,26,57.42,55.87,61.37,18.75,2.48,35.7-1.74,50.59-13.39s22.84-27,25-45.63h11.41c-.09,27.64-24.47,68.39-72.69,71.61-42.72,2.85-80.3-31.14-82.18-74.08C74.38,136.55,108.53,99.61,151.49,98.48Zm3.38,83.81c2.85.06,5.71,0,8.62,0-1.26,3.87-5.61,6.31-10.35,5.95a12,12,0,0,1-3.83-22.91c5.33-2.28,10.79-.66,14.92,5-3.61,0-6.56-.06-9.5,0-4.08.1-6.67,2.51-6.63,6S150.75,182.2,154.87,182.29Zm-.09-29.84c-10.15-.3-17.78,4.44-22.29,13.56A23.87,23.87,0,1,0,176,185.65c1.07-2.59,2.25-3.5,5.09-3.43,8.7.23,17.41.08,26.12.08-.62,19.41-18.94,47.25-52.21,47.87a53.88,53.88,0,1,1-1.15-107.75c32.82,0,52.47,27,53.4,47.9-9.46,0-18.92.08-28.36-.13-.9,0-2-1.75-2.57-2.91C172,158.07,164.94,152.76,154.78,152.45Z"/><path class="cls-3" d="M69.17,296.14q-16.85-.08-33.68,0c-4.47,0-7.12,2.25-7.18,5.89s2.69,6.05,7.36,6.07c5.49,0,11,0,16.47,0s11.23,0,16.84,0c4.43,0,7.12-2.28,7.18-5.89S73.53,296.15,69.17,296.14Z"/><path class="cls-3" d="M93.82,296.15a35.41,35.41,0,0,0-6.35.08c-3.24.47-5.18,2.53-5.21,5.84s1.92,5.33,5.14,5.92a23.46,23.46,0,0,0,4.11,0v.06c.74,0,1.49,0,2.24,0,3.82-.2,6.35-2.56,6.37-5.95S97.64,296.3,93.82,296.15Z"/></svg>