<svg width="480" height="480" viewBox="0 0 480 480" fill="none" xmlns="http://www.w3.org/2000/svg">
<path d="M394.133 2.93333C392 4.93333 388.133 13.6 382.533 28.6667C378 41.0667 373.6 52 372.8 52.8C372 53.6 361.2 58 348.667 62.5333C325.733 70.9333 320 74.5333 320 80C320 85.4667 325.733 89.0667 348.667 97.4667C361.2 102 372 106.4 372.8 107.2C373.6 108 378 118.8 382.533 131.333C390.933 154.267 394.533 160 400 160C405.467 160 409.067 154.267 417.467 131.333C422 118.8 426.4 108 427.2 107.2C428 106.4 438.933 102 451.333 97.4667C474.267 89.0667 480 85.4667 480 80C480 74.5333 474.267 70.9333 451.333 62.5333C438.933 58 428 53.6 427.2 52.8C426.4 52 422 41.0667 417.467 28.6667C409.067 5.73333 405.467 -8.34465e-06 400 -8.34465e-06C398.667 -8.34465e-06 396 1.33333 394.133 2.93333Z" fill="white"/>
<path d="M153.2 82C150.533 83.4667 144.933 94.2667 126.8 133.733L103.733 183.6L53.8667 206.667C1.46667 230.8 0 231.733 0 240C0 248.133 1.46667 249.067 53.7333 273.2L103.6 296.267L126.667 346.133C151.067 399.067 151.6 400 160.533 400C167.733 400 171.067 394.267 194 344.533L216.133 296.267L264.8 273.867C291.467 261.6 314.667 250.133 316.267 248.4C320.4 244 320.4 236 316.267 231.6C314.667 229.867 291.467 218.4 264.8 206.133L216.133 183.733L193.067 133.733C174 92.4 169.467 83.4667 166.4 81.8667C161.867 79.6 157.6 79.6 153.2 82Z" fill="white"/>
<path d="M367.467 322.933C365.334 324.933 361.467 333.6 355.867 348.667C351.334 361.067 346.934 372 346.134 372.8C345.334 373.6 334.534 378 322.001 382.533C299.067 390.933 293.334 394.533 293.334 400C293.334 405.467 299.067 409.067 322.001 417.467C334.534 422 345.334 426.4 346.134 427.2C346.934 428 351.334 438.8 355.867 451.333C364.267 474.267 367.867 480 373.334 480C378.801 480 382.401 474.267 390.801 451.333C395.334 438.8 399.734 428 400.534 427.2C401.334 426.4 412.267 422 424.667 417.467C447.601 409.067 453.334 405.467 453.334 400C453.334 394.533 447.601 390.933 424.667 382.533C412.267 378 401.334 373.6 400.534 372.8C399.734 372 395.334 361.067 390.801 348.667C382.401 325.733 378.801 320 373.334 320C372.001 320 369.334 321.333 367.467 322.933Z" fill="white"/>
</svg>
