<svg width="548" height="354" viewBox="0 0 548 354" fill="none" xmlns="http://www.w3.org/2000/svg">
<rect width="547.857" height="354" rx="40" fill="#3858E9"/>
<path d="M433.568 76.6553L406.948 138.936H422.291C427.375 138.936 432.25 140.954 435.844 144.547C439.439 148.141 441.458 153.014 441.458 158.096C441.451 160.597 440.949 163.072 439.979 165.378C439.01 167.684 437.594 169.775 435.812 171.531C434.03 173.286 431.918 174.672 429.597 175.607C427.276 176.542 424.793 177.008 422.291 176.979H390.88L371.405 222.75L363.951 240.377H422.291C443.183 240.456 463.321 232.585 478.619 218.363C493.917 204.141 503.229 184.632 504.664 163.797C506.099 142.963 499.55 122.362 486.346 106.178C473.142 89.9944 454.272 79.4392 433.568 76.6553Z" fill="white"/>
<path d="M419.476 75.8574H345.164L281.542 223.74L282.032 224.9L283.033 227.221L318.693 310.109L318.757 309.981L346.441 245.625L419.476 75.8574Z" fill="white"/>
<path d="M211.187 138.915L216.223 127.217L227.106 101.936L238.318 75.8574H202.274H171.512H127.334L127.739 76.7941L136.481 97.1356L142.859 111.942L182.608 204.335L182.746 204.644L182.831 204.846L202.243 159.714L211.187 138.915Z" fill="white"/>
<path d="M328.235 75.8574H253.922L190.301 223.74L190.801 224.9L191.802 227.221L227.462 310.109L227.515 309.981L255.2 245.625L328.235 75.8574Z" fill="white"/>
<path d="M155.827 176.979H124.415C119.403 176.979 114.595 174.988 111.051 171.445C107.507 167.902 105.515 163.096 105.515 158.085C105.515 153.074 107.507 148.268 111.051 144.725C114.595 141.182 119.403 139.191 124.415 139.191H139.738L113.118 76.6553C92.4767 79.5123 73.6894 90.0944 60.5515 106.264C47.4136 122.433 40.9044 142.985 42.3388 163.766C43.7732 184.548 53.0443 204.011 68.2792 218.223C83.5142 232.436 103.577 240.338 124.415 240.334H182.788L175.249 222.75L155.827 176.979Z" fill="white"/>
</svg>
