<svg width="302" height="153" viewBox="0 0 302 153" fill="none" xmlns="http://www.w3.org/2000/svg">
<g clip-path="url(#clip0_474_112)">
<path d="M255.647 0.521484L238.261 41.1996H248.282C251.603 41.1996 254.787 42.518 257.134 44.8649C259.482 47.2118 260.801 50.3948 260.801 53.7138C260.796 55.3474 260.468 56.964 259.835 58.4702C259.202 59.9763 258.277 61.3422 257.113 62.4889C255.949 63.6356 254.57 64.5405 253.054 65.1513C251.538 65.762 249.917 66.0665 248.282 66.0472H227.766L215.046 95.9423L210.178 107.455H248.282C261.927 107.507 275.081 102.366 285.073 93.0772C295.065 83.788 301.146 71.0462 302.084 57.438C303.021 43.8298 298.743 30.3749 290.119 19.8044C281.495 9.2339 269.171 2.33981 255.647 0.521484Z" fill="#AAAAAA"/>
<path d="M246.446 0H197.91L156.355 96.5888L156.675 97.3466L157.329 98.8622L180.62 153L180.662 152.917L198.744 110.883L246.446 0Z" fill="#AAAAAA"/>
<path d="M110.406 41.1856L113.695 33.545L120.803 17.0332L128.126 0H104.585H84.4927H55.6377L55.902 0.611805L61.6118 13.8977L65.7776 23.5684L91.7394 83.9147L91.8298 84.1163L91.8855 84.2484L104.564 54.7705L110.406 41.1856Z" fill="#AAAAAA"/>
<path d="M186.852 0H138.315L96.7607 96.5888L97.0876 97.3466L97.7413 98.8622L121.033 153L121.067 152.917L139.15 110.883L186.852 0Z" fill="#AAAAAA"/>
<path d="M74.2479 66.0472H53.7316C50.4576 66.0472 47.3177 64.7471 45.0027 62.4328C42.6876 60.1185 41.387 56.9797 41.387 53.7068C41.387 50.434 42.6876 47.2951 45.0027 44.9809C47.3177 42.6666 50.4576 41.3664 53.7316 41.3664H63.7394L46.3527 0.521484C32.8709 2.38753 20.6001 9.29916 12.0192 19.8601C3.43821 30.4211 -0.813262 43.8442 0.123614 57.4177C1.06049 70.9912 7.11588 83.7033 17.0665 92.986C27.0171 102.269 40.1212 107.43 53.7316 107.428H91.8571L86.9332 95.9423L74.2479 66.0472Z" fill="#AAAAAA"/>
</g>
<defs>
<clipPath id="clip0_474_112">
<rect width="302" height="153" fill="white"/>
</clipPath>
</defs>
</svg>
