<svg width="354" height="354" viewBox="0 0 354 354" fill="none" xmlns="http://www.w3.org/2000/svg">
<rect width="354" height="354" rx="45" fill="#0073AA"/>
<path d="M283.671 115.532L265.943 157.007H276.161C279.547 157.007 282.793 158.352 285.187 160.745C287.581 163.138 288.925 166.383 288.925 169.767C288.921 171.433 288.586 173.081 287.941 174.617C287.295 176.152 286.352 177.545 285.165 178.714C283.979 179.883 282.572 180.806 281.026 181.429C279.481 182.051 277.828 182.362 276.161 182.342H255.243L242.273 212.823L237.31 224.562H276.161C290.074 224.615 303.485 219.374 313.673 209.902C323.861 200.431 330.062 187.439 331.018 173.564C331.973 159.689 327.612 145.971 318.819 135.193C310.025 124.415 297.459 117.386 283.671 115.532Z" fill="white"/>
<path d="M274.285 115H224.797L182.428 213.483L182.754 214.255L183.42 215.801L207.168 271L207.211 270.915L225.648 228.057L274.285 115Z" fill="white"/>
<path d="M135.574 156.993L138.928 149.203L146.176 132.367L153.642 115H129.639H109.153H79.7324L80.0019 115.624L85.8236 129.17L90.0712 139.031L116.542 200.56L116.634 200.766L116.691 200.9L129.618 170.844L135.574 156.993Z" fill="white"/>
<path d="M213.522 115H164.034L121.665 213.483L121.998 214.255L122.665 215.801L146.413 271L146.448 270.915L164.885 228.057L213.522 115Z" fill="white"/>
<path d="M98.7077 182.342H77.7891C74.4509 182.342 71.2495 181.017 68.889 178.657C66.5286 176.297 65.2025 173.097 65.2025 169.76C65.2025 166.423 66.5286 163.223 68.889 160.863C71.2495 158.503 74.4509 157.178 77.7891 157.178H87.9931L70.2655 115.532C56.5194 117.434 44.008 124.482 35.2588 135.25C26.5096 146.018 22.1748 159.704 23.13 173.544C24.0853 187.383 30.2594 200.345 40.4051 209.809C50.5508 219.274 63.9119 224.537 77.7891 224.534H116.662L111.642 212.823L98.7077 182.342Z" fill="white"/>
</svg>
