<svg id="Capa_1" data-name="Capa 1" xmlns="http://www.w3.org/2000/svg" viewBox="0 0 434.24 220.07"><defs><style>.cls-1{fill:#fff;}</style></defs><path class="cls-1" d="M367.59.75l-25,58.51H357a18,18,0,0,1,18,18A17.79,17.79,0,0,1,357,95h-29.5L309.21,138l-7,16.56H357A77.25,77.25,0,0,0,367.59.75Z"/><polygon class="cls-1" points="354.36 0 284.57 0 224.82 138.93 225.28 140.02 226.22 142.2 259.71 220.07 259.77 219.95 285.77 159.49 354.36 0 354.36 0"/><polygon class="cls-1" points="158.75 59.24 163.48 48.25 173.7 24.5 184.23 0 150.38 0 121.49 0 80 0 80 0 80.38 0.88 88.59 19.99 94.58 33.9 131.91 120.7 132.04 120.99 132.12 121.18 150.35 78.78 158.75 59.24"/><polygon class="cls-1" points="268.67 0 198.88 0 139.13 138.93 139.6 140.02 140.54 142.2 174.03 220.07 174.08 219.95 200.08 159.49 268.67 0 268.67 0"/><path class="cls-1" d="M106.76,95H77.26a17.75,17.75,0,1,1,0-35.5H91.65L66.65.75A77.25,77.25,0,0,0,77.26,154.52h54.82L125,138Z"/></svg>