<svg width="354" height="354" viewBox="0 0 354 354" fill="none" xmlns="http://www.w3.org/2000/svg">
<rect width="354" height="354" rx="90" fill="#111111"/>
<path d="M176.706 218.783C153.601 218.783 134.951 200.092 134.951 176.937C134.951 153.783 153.601 135.092 176.706 135.092V70C162.323 70 148.313 72.8827 135.137 78.462C122.425 83.8554 111.012 91.5735 101.269 101.337C91.4339 111.101 83.8253 122.539 78.4437 135.278C72.8764 148.483 70 162.524 70 176.937C70 191.351 72.8764 205.392 78.4437 218.597C83.8253 231.336 91.5267 242.774 101.269 252.538C111.012 262.302 122.425 270.02 135.137 275.413C148.313 280.992 162.323 283.875 176.706 283.875C191.088 283.875 205.099 280.992 218.274 275.413C227.739 271.414 236.368 266.114 244.255 259.698L209.46 202.881C201.758 212.552 189.974 218.783 176.706 218.783Z" fill="white"/>
<path d="M221.957 179.815L283.868 283.877V179.815V115.029H221.957V179.815Z" fill="#FF0844"/>
<path d="M283.868 70H221.957V92.5132H283.868V70Z" fill="#FF0844"/>
</svg>
