<svg width="292" height="292" viewBox="0 0 292 292" fill="none" xmlns="http://www.w3.org/2000/svg">
<path d="M0 12C0 5.37259 5.37258 0 12 0H280C286.627 0 292 5.37258 292 12V280C292 286.627 286.627 292 280 292H12C5.37259 292 0 286.627 0 280V12Z" fill="#1E1E1E"/>
<path d="M195.048 67.4292H215.752V223.571H195.048V67.4292Z" fill="#00FF41"/>
<path d="M134.597 246C123.596 246 114.615 243.655 107.656 238.965C100.696 234.275 97.216 227.324 97.216 218.111V171.881C97.216 166.019 95.7567 162.082 92.8381 160.072C89.9195 157.895 84.3068 156.806 76 156.806V134.194C84.3068 134.194 89.9195 133.189 92.8381 131.179C95.7567 129.001 97.216 124.981 97.216 119.119V72.8887C97.216 63.6763 100.696 56.725 107.656 52.035C114.615 47.345 123.596 45 134.597 45H153.455V67.6125H148.067C142.005 67.6125 137.515 68.9525 134.597 71.6325C131.678 74.145 130.219 78.7513 130.219 85.4513V123.139C130.219 134.864 123.371 142.234 109.676 145.249V145.751C123.371 148.766 130.219 156.136 130.219 167.861V205.549C130.219 212.249 131.678 216.939 134.597 219.619C137.515 222.131 142.005 223.387 148.067 223.387H153.455V246H134.597Z" fill="#00FF41"/>
</svg>
