<?xml version="1.0" encoding="utf-8"?>
<!-- Generator: Adobe Illustrator 24.1.0, SVG Export Plug-In . SVG Version: 6.00 Build 0)  -->
<svg version="1.1" id="Capa_1" xmlns="http://www.w3.org/2000/svg" xmlns:xlink="http://www.w3.org/1999/xlink" x="0px" y="0px"
	 viewBox="0 0 230.5 230" style="enable-background:new 0 0 230.5 230;" xml:space="preserve">
<style type="text/css">
	.st0{fill:#212121;}
	.st1{fill:#FFFFFF;}
	.st2{fill:#FF0844;}
</style>
<g>
	<g>
		<path class="st1" d="M70.2,9.1c-13.7,5.8-26,14.1-36.5,24.6C23.1,44.2,14.9,56.5,9.1,70.2C3.1,84.4,0,99.5,0,115
			s3.1,30.6,9.1,44.8c5.8,13.7,14.1,26,24.6,36.5c10.5,10.5,22.8,18.8,36.5,24.6c14.2,6,29.3,9.1,44.8,9.1s30.6-3.1,44.8-9.1
			c13.3-5.6,25.3-13.6,35.6-23.7l-39.3-64c-7,15.8-22.8,26.8-41.1,26.8c-24.9,0-45-20.1-45-45c0-24.9,20.1-45,45-45V0
			C99.5,0,84.4,3.1,70.2,9.1z"/>
	</g>
	<polygon class="st2" points="161.2,116.6 230.5,230 230.5,116.6 230.5,40 161.2,40 	"/>
	<rect x="161.2" y="0" class="st2" width="69.3" height="26.6"/>
</g>
</svg>
