<svg width="233" height="397" viewBox="0 0 233 397" fill="none" xmlns="http://www.w3.org/2000/svg">
<path d="M49.4708 339.433H49.2577C27.5188 339.433 10.4688 322.403 10.4688 299.307C10.4688 286.215 14.5181 276.956 21.3382 269.08L35.9373 281.213C31.4617 286.535 28.9042 291.857 28.9042 299.2C28.9042 309.95 37.962 318.252 49.3642 318.252H49.5774C61.619 318.252 70.2506 309.844 70.2506 298.03C70.2506 293.027 69.185 289.196 67.1603 286.109H58.1024V300.797H42.9705V266.552H76.5378C83.0382 274.428 88.0466 285.391 88.0466 298.908C88.02 322.084 72.0355 339.433 49.4708 339.433Z" fill="white"/>
<path d="M57.1235 212.604L35.9174 220.906L57.1235 229.314V212.604ZM11.4346 230.698V210.795L86.5348 179.077V201.215L73.2145 206.644V235.381L86.5348 240.703V262.389L11.4346 230.698Z" fill="white"/>
<path d="M30.0688 164.61V186.961H11.9531V121.637H30.0688V143.988H86.5206V164.637H30.0688V164.61Z" fill="white"/>
<path d="M153.011 395.022V375.757L192.412 345.104H153.011V324.668H227.578V342.762L186.685 374.586H227.605V395.022H153.011Z" fill="white"/>
<path d="M153.011 312.869V252.974H170.594V292.434H181.889V256.699H198.193V292.434H210.022V252.441H227.605V312.869H153.011Z" fill="white"/>
<path d="M190.517 246.364H190.304C168.565 246.364 151.515 229.334 151.515 206.238C151.515 193.147 155.564 183.887 162.384 176.011L176.983 188.144C172.508 193.466 169.95 198.788 169.95 206.132C169.95 216.882 179.008 225.183 190.41 225.183H190.623C202.665 225.183 211.296 216.775 211.296 204.961C211.296 199.958 210.231 196.127 208.206 193.04H199.148V207.728H184.016V173.483H217.584C224.084 181.359 229.093 192.322 229.093 205.839C229.066 229.042 213.081 246.364 190.517 246.364Z" fill="white"/>
<path d="M188.813 129.115C188.813 122.09 185.403 118.045 179.968 118.045H179.755C173.894 118.045 170.91 122.303 170.91 129.221V142.738H188.813V129.115ZM153.008 163.386V128.157C153.008 116.768 155.992 108.892 161.107 103.89C165.369 99.5259 171.124 97.2908 178.476 97.2908H178.689C190.092 97.2908 197.658 103.358 201.601 112.617L227.602 94.8428V118.684L205.011 133.691V142.738H227.602V163.386H153.008Z" fill="white"/>
<path d="M86.377 63.5014C79.5304 55.9446 66.6362 51.3413 52.9962 48.5474C54.5147 51.6606 55.7402 55.2527 56.5394 59.1642C59.2567 72.5749 49.0267 85.9324 49.0267 85.9324C49.0267 85.9324 34.4009 77.5773 31.6836 64.1932C30.245 57.1153 30.538 50.4366 32.1098 45.514C16.0987 43.9973 3.09804 44.3166 3.09804 44.3166C3.09804 44.3166 -2.49652 49.9044 5.49571 74.9165C13.5146 99.9285 38.3437 104.319 38.3437 104.319C38.3437 104.319 50.7583 107.113 60.7753 104.319C70.7389 101.498 105.185 84.3093 86.377 63.5014Z" fill="#E8C270"/>
<path d="M151.074 44.3565C155.443 35.1499 166.472 27.0343 178.727 20.4353C178.167 23.8412 178.034 27.6463 178.407 31.6376C179.686 45.2345 193.326 55.1063 193.326 55.1063C193.326 55.1063 204.915 42.893 203.663 29.296C202.997 22.1117 200.812 15.8055 197.855 11.5215C212.747 5.45472 225.295 1.99561 225.295 1.99561C225.295 1.99561 232.275 5.74741 231.822 31.9835C231.369 58.2461 208.858 69.5814 208.858 69.5814C208.858 69.5814 197.775 75.8344 187.385 76.0473C176.995 76.2335 139.059 69.6878 151.074 44.3565Z" fill="#E8C270"/>
</svg>
