<svg width="354" height="354" viewBox="0 0 354 354" fill="none" xmlns="http://www.w3.org/2000/svg">
<rect width="354" height="354" rx="177" fill="black"/>
<path d="M145.376 187.532C138.192 179.603 124.664 174.773 110.352 171.842C111.945 175.108 113.231 178.877 114.07 182.981C116.921 197.052 106.187 211.067 106.187 211.067C106.187 211.067 90.8413 202.301 87.9902 188.258C86.4808 180.832 86.7882 173.824 88.4374 168.659C71.6381 167.068 57.9974 167.403 57.9974 167.403C57.9974 167.403 52.1274 173.266 60.5131 199.509C68.9268 225.753 94.9782 230.359 94.9782 230.359C94.9782 230.359 108.004 233.291 118.514 230.359C128.968 227.4 165.11 209.364 145.376 187.532Z" fill="#E8C270"/>
<path d="M213.255 167.446C217.839 157.786 229.411 149.271 242.269 142.348C241.682 145.921 241.542 149.913 241.934 154.101C243.275 168.368 257.587 178.725 257.587 178.725C257.587 178.725 269.746 165.911 268.432 151.644C267.734 144.106 265.442 137.49 262.339 132.995C277.964 126.629 291.13 123 291.13 123C291.13 123 298.453 126.937 297.978 154.464C297.503 182.02 273.883 193.913 273.883 193.913C273.883 193.913 262.255 200.474 251.354 200.697C240.452 200.893 200.648 194.025 213.255 167.446Z" fill="#E8C270"/>
</svg>
