<?xml version="1.0" encoding="utf-8"?>
<!-- Generator: Adobe Illustrator 24.1.0, SVG Export Plug-In . SVG Version: 6.00 Build 0)  -->
<svg version="1.1" id="Capa_1" xmlns="http://www.w3.org/2000/svg" xmlns:xlink="http://www.w3.org/1999/xlink" x="0px" y="0px"
	 viewBox="0 0 378.1 378" style="enable-background:new 0 0 378.1 378;" xml:space="preserve">
<style type="text/css">
	.st0{fill:#0A0000;}
	.st1{fill:#FFFFFF;}
	.st2{fill:#2A2A2A;}
	.st3{fill:#D7D7D7;}
	.st4{fill:url(#SVGID_1_);}
	.st5{fill:#888888;}
	.st6{fill:#333333;}
	.st7{clip-path:url(#SVGID_3_);}
	.st8{fill:none;}
	.st9{fill:none;stroke:#FFFFFF;stroke-width:0.45;stroke-miterlimit:10;}
	.st10{clip-path:url(#SVGID_5_);}
	.st11{fill:#313131;}
	.st12{fill:url(#SVGID_8_);}
	.st13{fill:url(#SVGID_9_);}
	.st14{fill:url(#SVGID_10_);}
	.st15{fill:#D1D1D1;}
	.st16{fill:url(#SVGID_11_);}
	.st17{fill:url(#SVGID_12_);}
	.st18{fill:url(#SVGID_13_);}
</style>
<linearGradient id="SVGID_1_" gradientUnits="userSpaceOnUse" x1="-0.4828" y1="-0.5328" x2="377.6093" y2="377.5593">
	<stop  offset="0" style="stop-color:#9C9D9C"/>
	<stop  offset="0.5297" style="stop-color:#313131"/>
	<stop  offset="1" style="stop-color:#9C9D9C"/>
</linearGradient>
<path class="st4" d="M277.9,0H100.2C44.8,0,0,44.8,0,100.1v177.8C0,333.2,44.8,378,100.2,378h177.8c55.3,0,100.2-44.8,100.2-100.2
	V100.1C378.1,44.8,333.3,0,277.9,0z M370.1,277.9c0,50.8-41.3,92.2-92.2,92.2H100.2C49.3,370,8,328.7,8,277.9V100.1
	C8,49.3,49.3,8,100.2,8h177.8c50.8,0,92.2,41.3,92.2,92.2V277.9z"/>
<linearGradient id="SVGID_3_" gradientUnits="userSpaceOnUse" x1="189.05" y1="6.1395" x2="189.05" y2="372.4583">
	<stop  offset="0" style="stop-color:#313131"/>
	<stop  offset="0.5437" style="stop-color:#1E1E1E"/>
	<stop  offset="1" style="stop-color:#141414"/>
</linearGradient>
<path style="fill:url(#SVGID_3_);" d="M278.8,6.1H99.3C47.9,6.1,6.2,47.9,6.2,99.2v179.5c0,51.3,41.8,93.1,93.1,93.1h179.5
	c51.3,0,93.1-41.8,93.1-93.1V99.2C371.9,47.9,330.2,6.1,278.8,6.1z"/>
<g>
	<linearGradient id="SVGID_5_" gradientUnits="userSpaceOnUse" x1="55.4866" y1="140.5591" x2="55.4866" y2="193.3184">
		<stop  offset="0" style="stop-color:#FFFFFF"/>
		<stop  offset="1" style="stop-color:#C8C8C8"/>
	</linearGradient>
	<path style="fill:url(#SVGID_5_);" d="M45.7,244.2v-21.5l3.4-53h13.1l3.4,53l0,21.5H45.7z M53.6,152.7c-3.1,0-5.6-0.9-7.4-2.7
		c-1.9-1.7-2.8-4.1-2.8-7.1c0-2.8,0.9-4.9,2.8-6.6c1.9-1.7,4.3-2.5,7.4-2.5h3.7c3.3,0,5.7,0.8,7.4,2.5c1.9,1.7,2.8,3.9,2.8,6.9
		c0,2.8-0.9,5.1-2.8,6.8c-2.1,1.8-4.5,2.7-7.4,2.7H53.6z"/>
	<path class="st15" d="M57.4,134.3c3.2,0,5.4,0.8,7,2.3l0,0l0,0c1.8,1.6,2.6,3.6,2.6,6.5c0,2.7-0.9,4.8-2.6,6.5
		c-2,1.8-4.3,2.6-7,2.6h-3.7c-2.9,0-5.3-0.9-7-2.6l0,0l0,0c-1.8-1.5-2.6-3.8-2.6-6.7c0-2.7,0.8-4.6,2.6-6.2c1.8-1.6,4-2.4,7-2.4
		H57.4 M61.8,170.2l3.4,52.5v21h-19v-21l3.4-52.5H61.8 M57.4,133.3h-3.7c-3.1,0-5.6,0.7-7.7,2.6c-2,1.7-3,4-3,7s0.9,5.6,3,7.5
		c1.9,1.9,4.5,2.9,7.7,2.9h3.7c3.1,0,5.6-1,7.7-2.9c2-1.9,3-4.2,3-7.2s-0.9-5.3-3-7.2C63.2,134.1,60.6,133.3,57.4,133.3L57.4,133.3z
		 M62.7,169.2h-14l-3.5,53.5v22h21v-22L62.7,169.2L62.7,169.2z"/>
</g>
<g>
	<linearGradient id="SVGID_7_" gradientUnits="userSpaceOnUse" x1="142.0635" y1="140.5631" x2="142.0635" y2="193.319">
		<stop  offset="0" style="stop-color:#FFFFFF"/>
		<stop  offset="1" style="stop-color:#C8C8C8"/>
	</linearGradient>
	<polygon style="fill:url(#SVGID_7_);" points="157.5,243.9 157.5,195.3 126.8,195.3 126.8,243.9 108.7,243.9 108.7,134.3 
		126.7,134.3 126.7,178.7 157.4,178.7 157.4,134.3 175.4,134.3 175.4,243.9 	"/>
	<path class="st15" d="M174.9,134.8v108.6H158v-47.6v-1h-1h-29.7h-1v1v47.6h-17.1V134.8h17v43.4v1h1h29.7h1v-1v-43.4H174.9
		 M175.9,133.8h-19v44.4h-29.7v-44.4h-19v110.6h19.1v-48.6H157v48.6h18.9V133.8L175.9,133.8z"/>
</g>
<g>
	<linearGradient id="SVGID_8_" gradientUnits="userSpaceOnUse" x1="230.4429" y1="140.5631" x2="230.4429" y2="193.3189">
		<stop  offset="0" style="stop-color:#FFFFFF"/>
		<stop  offset="1" style="stop-color:#C8C8C8"/>
	</linearGradient>
	<path class="st12" d="M250.1,243.9V210c0-4.5,0.2-9.6,0.4-15.1l0.1-1.6c0.3-3.6,0.5-7.2,0.6-10.6c0.1-2.4,0.2-4.8,0.4-7.2
		c0.2-2.2,0.3-4.2,0.5-6.3c0.3-3.7,0.5-7.3,0.9-10.7c0.5-4,0.8-7.6,1.1-10.8c0.1-1.1,0.2-2.2,0.3-3.2l-1-0.2l-14.7,51.8h-16.3
		l-15.1-51.8l-1,0.2c0.4,2.3,0.7,5.1,1,8c0.2,1.8,0.4,3.6,0.6,5.5c0.6,5.2,1,11.3,1.4,16.6c0.3,3.1,0.4,6.1,0.6,9.1
		c0.2,2.9,0.4,5.9,0.6,8.9c0.5,6.1,0.5,11.7,0.5,17.2v33.9H194V134.3h21.5l10.7,34.9c1.2,3.5,2,6.5,2.8,9.2l0.1,0.3
		c0.7,2.8,1.4,6.3,1.4,6.3l0.5,2.8l0.5-2.8c0,0,0.6-3.5,1.4-6.3c0.8-3.2,1.7-6.4,2.6-9.6l10.1-34.9h21.5v109.6H250.1z"/>
	<path class="st15" d="M266.4,134.8v108.6h-15.8V210c0-4.5,0.2-9.7,0.4-15.1l0.1-1.5c0.3-3.6,0.5-7.2,0.6-10.6
		c0.1-2.3,0.2-4.8,0.4-7.1c0.2-2.2,0.3-4.3,0.5-6.3c0.3-3.7,0.5-7.3,0.9-10.7c0.5-4,0.8-7.6,1.1-10.9c0.1-1.1,0.2-2.2,0.3-3.2
		l-2-0.4l-14.6,51.5h-15.5l-15-51.5l-1.9,0.4c0.4,2.3,0.7,5.1,1,8c0.2,1.8,0.4,3.6,0.6,5.5c0.6,5.2,1,11.3,1.4,16.6
		c0.3,3.1,0.4,6.1,0.6,9.1c0.2,2.9,0.4,5.9,0.6,8.9c0.5,6.1,0.5,11.7,0.5,17.2v33.4l-16.1,0V134.8h20.6l10.6,34.6
		c1.2,3.4,2,6.5,2.8,9.2l0.1,0.3c0.7,2.8,1.3,6.2,1.4,6.3l1,5.5l1-5.5c0,0,0.6-3.5,1.4-6.3c0.8-3.2,1.7-6.4,2.6-9.5l10-34.6H266.4
		 M267.4,133.8H245l-10.2,35.3c-1,3.4-1.9,6.6-2.6,9.6c-0.7,2.9-1.4,6.3-1.4,6.3s-0.6-3.5-1.4-6.3c-0.7-2.7-1.6-6-2.9-9.6
		l-10.8-35.3h-22.4v110.6l18.1,0V210c0-5.5,0-11.2-0.5-17.3c-0.5-6.2-0.7-11.9-1.2-18c-0.4-5.8-0.7-11.6-1.4-16.7
		c-0.6-5.1-1-9.8-1.6-13.5l15.2,52.2h17l14.8-52.2c-0.4,4-0.7,8.7-1.4,14c-0.6,5.3-0.9,10.9-1.4,17c-0.4,5.8-0.5,11.7-1,17.8
		c-0.2,6.1-0.5,11.7-0.5,16.7v34.4h17.8V133.8L267.4,133.8z"/>
</g>
<g>
	<linearGradient id="SVGID_9_" gradientUnits="userSpaceOnUse" x1="322.3027" y1="140.5608" x2="322.3027" y2="193.3192">
		<stop  offset="0" style="stop-color:#FFFFFF"/>
		<stop  offset="1" style="stop-color:#C8C8C8"/>
	</linearGradient>
	<path class="st13" d="M320,244.2c-3,0-5.2-0.8-7.4-2.7c-1.9-1.6-2.7-3.7-2.7-6.8c0-2.8,0.9-5,2.7-6.9c2.1-1.9,4.4-2.7,7.4-2.7h4.6
		c3.1,0,5.6,0.9,7.4,2.7c1.8,1.8,2.7,4.1,2.7,6.9s-0.9,5-2.7,6.9c-2.1,1.9-4.4,2.7-7.4,2.7H320z M315.6,208.3l-3.5-54l0-20.2h19.6
		v20.3l-3.4,53.9H315.6z"/>
	<path class="st15" d="M331.3,134.6v19.7l-3.4,53.5h-11.8l-3.4-53.5v-19.7H331.3 M324.6,225.6c2.9,0,5.3,0.9,7,2.6
		c1.7,1.7,2.6,3.9,2.6,6.5c0,2.6-0.8,4.8-2.5,6.5c-2,1.8-4.2,2.6-7,2.6H320c-2.8,0-5-0.8-7-2.6c-1.7-1.5-2.5-3.5-2.5-6.5
		c0-2.6,0.8-4.8,2.5-6.5c2-1.8,4.2-2.6,7-2.6H324.6 M332.3,133.6h-20.6v20.8l3.5,54.4h13.7l3.5-54.4V133.6L332.3,133.6z
		 M324.6,224.6H320c-3.2,0-5.6,1-7.7,2.9c-1.9,1.9-2.9,4.2-2.9,7.2s0.7,5.3,2.9,7.2c2.1,1.9,4.5,2.9,7.7,2.9h4.6
		c3.2,0,5.6-1,7.7-2.9c1.9-1.9,2.9-4.2,2.9-7.2s-1-5.3-2.9-7.2C330.4,225.5,327.8,224.6,324.6,224.6L324.6,224.6z"/>
</g>
</svg>
