<svg width="247" height="243" viewBox="0 0 247 243" fill="none" xmlns="http://www.w3.org/2000/svg">
<path d="M209 2.37988C208.64 2.37988 208.29 2.37988 207.93 2.37988H39.0001C38.6401 2.37988 38.2801 2.37988 37.9201 2.37988C28.2936 2.38253 19.0621 6.20784 12.2551 13.0148C5.44807 19.8218 1.62277 29.0533 1.62012 38.6799V204.23C1.62277 213.855 5.44839 223.086 12.2557 229.891C19.063 236.697 28.2945 240.52 37.9201 240.52H209C218.626 240.52 227.857 236.697 234.665 229.891C241.472 223.086 245.297 213.855 245.3 204.23V38.6799C245.3 29.0525 241.476 19.8195 234.668 13.0119C227.861 6.20434 218.627 2.37988 209 2.37988Z" fill="#05668D"/>
<path d="M156.32 81.7199L123.46 114.58L90.6001 81.7199L57.7301 48.8599L24.8701 81.7199L57.7301 114.58L90.6001 147.45L123.46 180.31L156.32 147.45L189.18 114.58L156.32 81.7199Z" fill="white"/>
<path d="M187.21 194.05V147.58V123.9L140.73 171.25V194.05H187.21Z" fill="white"/>
<path d="M60.2598 194.05V147.58V123.9L106.73 171.25V194.05H60.2598Z" fill="white"/>
</svg>
