<svg width="354" height="354" viewBox="0 0 354 354" fill="none" xmlns="http://www.w3.org/2000/svg">
<path d="M163.23 323.926C166.123 326.819 173.44 331.38 179.566 326.479C184.876 321.578 184.501 316.269 183.651 314.227L169.356 271.854C200.157 275.258 259.206 282.365 270.437 281.043C279.116 280.022 286.773 276.959 294.431 271.854C300.557 267.77 304.471 259.262 305.662 255.518L353.65 70.7137C354.671 65.098 354.059 50.8037 343.44 38.5515C332.821 26.2993 315.872 25.2783 308.725 26.2993C308.725 26.2993 51.8492 48.7618 22.8403 60.5035C16.534 63.056 8.44378 70.3052 3.9513 78.8817C-0.541179 87.4583 -0.302941 98.1109 0.377737 102.365C0.377737 102.365 12.1196 193.746 22.8401 231.524C25.4479 240.713 25.9034 243.776 31.5189 249.392C38.1556 255.518 49.5569 256.879 55.0024 258.071L90.7378 262.155L163.23 323.926Z" fill="white"/>
<path d="M262.779 212.125H220.871V148.975L183.419 212.125H152.161L114.778 148.975V212.125H72.8701V113.086H122.645L167.825 183.828L212.935 113.086H262.779V212.125Z" fill="#111111"/>
</svg>
