<?xml version="1.0" encoding="utf-8"?>
<!-- Generator: Adobe Illustrator 24.1.0, SVG Export Plug-In . SVG Version: 6.00 Build 0)  -->
<svg version="1.1" id="Capa_1" xmlns="http://www.w3.org/2000/svg" xmlns:xlink="http://www.w3.org/1999/xlink" x="0px" y="0px"
	 viewBox="0 0 501.5 467" style="enable-background:new 0 0 501.5 467;" xml:space="preserve">
<style type="text/css">
	.st0{fill:#FFFFFF;}
	.st1{fill:#0178BA;}
	.st2{fill:#00B8D9;}
	.st3{fill:url(#SVGID_1_);stroke:#5BAED9;stroke-miterlimit:10;}
	.st4{fill:url(#SVGID_2_);stroke:#5BAED9;stroke-miterlimit:10;}
	.st5{fill:url(#SVGID_3_);stroke:#5BAED9;stroke-miterlimit:10;}
	.st6{fill:url(#SVGID_4_);stroke:#5BAED9;stroke-miterlimit:10;}
	.st7{fill:url(#SVGID_5_);}
	.st8{fill:url(#SVGID_6_);}
	.st9{fill:url(#SVGID_7_);}
	.st10{fill:url(#SVGID_8_);}
	.st11{fill:url(#SVGID_9_);stroke:#5BAED9;stroke-miterlimit:10;}
	.st12{fill:url(#SVGID_10_);stroke:#5BAED9;stroke-miterlimit:10;}
	.st13{fill:url(#SVGID_11_);stroke:#5BAED9;stroke-miterlimit:10;}
	.st14{fill:url(#SVGID_12_);stroke:#5BAED9;stroke-miterlimit:10;}
	.st15{fill:#5BAED9;}
</style>
<rect x="-12.8" y="-12.1" class="st0" width="527" height="491.2"/>
<path class="st1" d="M416.9,68.4c-41.8,25.8-107,24.9-137.6,90.1c0,0-8.4,22.1-6,51.1c2.4,29,25.8,81.3,25.8,81.3s20.1,52.3-8,46.7
	c-25-5-31.6-17.6-39.5-50.6c-2.7-13.9-7.7-39.9-11.2-53.7c-4.9-19.4-17.8-50.2-25.9-61.5s-29.1-17.8-51.8-11.3s-32.4,3.2-43.7,0
	c-11.3-3.2-93.8-29.1-93.8-29.1S93,160.5,109.2,167s25.9,9.7,37.2,21c5.8,5.8,10.7,14.4,14.1,21.6c6.1,24.9,19.3,67.3,44.7,102.7
	c27.4,38.2,70.1,61,102.4,52.8l68.6,60.8c0,0,8.1,8.1,12.9,9.7s4.9-3.2,4.9-3.2s6.5,6.5,9.7,8.1c3.2,1.6,8.1,3.2,9.7,3.2
	c1.6,0-1.6-4.9-1.6-4.9l-78.2-90.4c2.5-3,4.8-6.5,6.8-10.3c27.4-51.5,4.8-107,4.8-107s20.1-2.4,41-24.1
	c20.9-21.7,20.9-54.7,20.9-54.7s-12.9,11.3-25.8,17.7c-12.9,6.4-33.8,8-33.8,8s0.8-13.7,14.5-24.9c13.7-11.3,54.9-25.1,66-31.4
	c11.1-6.3,24.1-19.3,32.1-33.8c13.9-25.1,16.1-64.3,16.1-64.3S458.7,42.7,416.9,68.4z"/>
</svg>
