<?xml version="1.0" encoding="utf-8"?>
<!-- Generator: Adobe Illustrator 24.1.0, SVG Export Plug-In . SVG Version: 6.00 Build 0)  -->
<svg version="1.1" id="Capa_1" xmlns="http://www.w3.org/2000/svg" xmlns:xlink="http://www.w3.org/1999/xlink" x="0px" y="0px"
	 viewBox="0 0 467 467" style="enable-background:new 0 0 467 467;" xml:space="preserve">
<style type="text/css">
	.st0{fill:#0178BA;}
	.st1{fill:#FFFFFF;}
</style>
<g>
	<path class="st0" d="M348.1,0H118.9C53.3,0,0,53.4,0,118.9v229.2C0,413.6,53.4,467,118.9,467h229.2c65.5,0,118.9-53.4,118.9-118.9
		V118.9C467,53.4,413.7,0,348.1,0z"/>
	<path class="st1" d="M375.8,92.1c-35.8,22.1-91.7,21.3-117.9,77.2c0,0-7.2,18.9-5.1,43.8s22.1,69.7,22.1,69.7s17.2,44.8-6.9,40
		c-21.4-4.3-27.1-15.1-33.8-43.4c-2.3-11.9-6.6-34.2-9.6-46c-4.2-16.6-15.3-43-22.2-52.7c-6.9-9.7-24.9-15.3-44.4-9.7
		c-19.4,5.6-27.8,2.7-37.4,0S40.2,146,40.2,146s58.1,24.9,72,30.5c13.9,5.6,22.2,8.3,31.9,18c5,5,9.2,12.3,12.1,18.5
		c5.2,21.3,16.5,57.7,38.3,88c23.5,32.7,60.1,52.3,87.7,45.2l58.8,52.1c0,0,6.9,6.9,11.1,8.3s4.2-2.7,4.2-2.7s5.6,5.6,8.3,6.9
		c2.7,1.4,6.9,2.7,8.3,2.7s-1.4-4.2-1.4-4.2l-67-77.5c2.1-2.6,4.1-5.6,5.8-8.8c23.5-44.1,4.1-91.7,4.1-91.7s17.2-2.1,35.1-20.6
		c17.9-18.6,17.9-46.9,17.9-46.9s-11.1,9.7-22.1,15.2c-11.1,5.5-29,6.9-29,6.9s0.7-11.7,12.4-21.3c11.7-9.7,47-21.5,56.5-26.9
		c9.5-5.4,20.6-16.5,27.5-29c11.9-21.5,13.8-55.1,13.8-55.1S411.7,70,375.8,92.1z"/>
</g>
</svg>
