<?xml version="1.0" encoding="utf-8"?>
<!-- Generator: Adobe Illustrator 24.1.0, SVG Export Plug-In . SVG Version: 6.00 Build 0)  -->
<svg version="1.1" id="Capa_1" xmlns="http://www.w3.org/2000/svg" xmlns:xlink="http://www.w3.org/1999/xlink" x="0px" y="0px"
	 viewBox="0 0 2500 2500" style="enable-background:new 0 0 2500 2500;" xml:space="preserve">
<style type="text/css">
	.st0{fill:#663399;}
	.st1{fill:#FFFFFF;}
</style>
<g>
	<path class="st0" d="M137.5,137.5h1869c196.6,0,356,159.4,356,356v1513c0,196.6-159.4,356-356,356h-1513
		c-196.6,0-356-159.4-356-356V137.5z"/>
	<path class="st1" d="M934.3,2184.5c-142.9-0.1-231.1-80.6-229.4-228.7v-374.7c0-75.1,22-132.2,65.9-171.2
		c79-76.1,262.2-80.7,339.5,1.2c47.7,42,65.6,127.9,61.4,208h-164c1.2-31.5-0.4-79.2-18.9-97.1c-24.1-32.6-87.6-28.7-104.4,5.2
		c-10.3,18.4-15.5,45.6-15.5,81.6v325.3c0,68.2,23.7,102.7,71.1,103.4c22.2,0,39-8.1,50.5-24.1c16-19.1,18.5-61.4,17.2-91.9h164
		C1182.9,2077.2,1090.9,2186.4,934.3,2184.5L934.3,2184.5z M1455,2184.5c-158.4,2.2-229.2-110.5-224.8-263.2H1385
		c-4.3,66.6,18.6,127.2,73.4,123c24.5,0,41.7-7.7,51.6-23c18.9-28,22.5-108.9-4.6-140.2c-18.9-30.1-86.8-56.8-122.7-74.7
		c-51.2-24.5-88.1-53.6-110.7-87.4c-50.9-74.8-46.2-239.1,25.2-305.7c69.4-82.1,250.6-85.9,320-1.7c42.8,43.4,61.5,128.8,57.9,207.4
		h-149.1c1.3-32.3-1.8-84.4-14.3-103.4c-8.8-16.1-25.4-24.1-49.9-24.1c-43.6,0-65.4,26.1-65.4,78.1c0.5,55.3,22,78,72.3,101.1
		c65.1,25.3,147.8,68.4,177.8,120.7C1736,1950.6,1674.6,2193.7,1455,2184.5L1455,2184.5z M1955.1,2184.5
		c-158.4,2.2-229.2-110.5-224.8-263.2h154.8c-4.3,66.6,18.6,127.2,73.4,123c24.5,0,41.7-7.7,51.6-23c18.9-28,22.5-108.9-4.6-140.2
		c-18.9-30.1-86.8-56.8-122.7-74.7c-51.2-24.5-88.1-53.6-110.7-87.4c-50.9-74.8-46.2-239.1,25.2-305.7c69.4-82.1,250.6-85.9,320-1.7
		c42.8,43.4,61.5,128.8,57.9,207.4h-149.1c1.3-32.3-1.8-84.4-14.3-103.4c-8.8-16.1-25.4-24.1-49.9-24.1c-43.6,0-65.4,26.1-65.4,78.1
		c0.5,55.3,22,78,72.3,101.1c65.1,25.3,147.8,68.4,177.8,120.7C2236.1,1950.6,2174.7,2193.7,1955.1,2184.5L1955.1,2184.5z"/>
</g>
</svg>
