<?xml version="1.0" encoding="utf-8"?>
<!-- Generator: Adobe Illustrator 24.1.0, SVG Export Plug-In . SVG Version: 6.00 Build 0)  -->
<svg version="1.1" id="Capa_1" xmlns="http://www.w3.org/2000/svg" xmlns:xlink="http://www.w3.org/1999/xlink" x="0px" y="0px"
	 viewBox="0 0 1667 2500" style="enable-background:new 0 0 1667 2500;" xml:space="preserve">
<style type="text/css">
	.st0{fill:none;}
	.st1{fill:#1ABCFE;}
	.st2{fill:#0ACF83;}
	.st3{fill:#FF7262;}
	.st4{fill:#F24E1E;}
	.st5{fill:#A259FF;}
</style>
<g>
	<path class="st0" d="M91.8,137.5h1483.3v2225H91.8V137.5z"/>
	<path class="st1" d="M833.5,1250c0-204.8,166-370.8,370.8-370.8c204.8,0,370.8,166,370.8,370.8c0,204.8-166,370.8-370.8,370.8
		C999.5,1620.8,833.5,1454.8,833.5,1250z"/>
	<path class="st2" d="M91.8,1991.7c0-204.8,166-370.8,370.8-370.8h370.8v370.8c0,204.8-166,370.8-370.8,370.8
		S91.8,2196.5,91.8,1991.7z"/>
	<path class="st3" d="M833.5,137.5v741.7h370.8c204.8,0,370.8-166,370.8-370.8s-166-370.8-370.8-370.8H833.5z"/>
	<path class="st4" d="M91.8,508.3c0,204.8,166,370.8,370.8,370.8h370.8V137.5H462.7C257.9,137.5,91.8,303.5,91.8,508.3L91.8,508.3z"
		/>
	<path class="st5" d="M91.8,1250c0,204.8,166,370.8,370.8,370.8h370.8V879.2H462.7C257.9,879.2,91.8,1045.2,91.8,1250L91.8,1250z"/>
</g>
</svg>
