<?xml version="1.0" encoding="utf-8"?>
<!-- Generator: Adobe Illustrator 24.1.0, SVG Export Plug-In . SVG Version: 6.00 Build 0)  -->
<svg version="1.1" id="Capa_1" xmlns="http://www.w3.org/2000/svg" xmlns:xlink="http://www.w3.org/1999/xlink" x="0px" y="0px"
	 viewBox="0 0 2500 2500" style="enable-background:new 0 0 2500 2500;" xml:space="preserve">
<style type="text/css">
	.st0{fill:#E44D26;}
	.st1{fill:#F16529;}
	.st2{fill:#EBEBEB;}
	.st3{fill:#AAAAAA;}
	.st4{fill:#FFFFFF;}
</style>
<path class="st0" d="M1771.2,491.3l-161.4,1807.6L884.5,2500l-723.3-200.8L0,491.3H1771.2z"/>
<path class="st1" d="M885.6,2346.3l586.1-162.5l137.9-1544.7h-724V2346.3z"/>
<path class="st2" d="M571.9,1082.6h313.7V860.9h-556l5.3,59.5l54.5,611h496.2v-221.7H592.2L571.9,1082.6z M621.9,1642.3H399.3
	l31.1,348.2l454.2,126.1l1-0.3v-230.7l-1,0.3l-246.9-66.7L621.9,1642.3z"/>
<path class="st3" d="M164.8,0h112.7v111.3h103.1V0h112.7v337.1H380.6V224.2H277.5v112.9H164.8V0L164.8,0z M641.4,111.8h-99.2V0
	h311.1v111.8h-99.2v225.3H641.4V111.8L641.4,111.8L641.4,111.8z M902.7,0h117.5l72.3,118.5L1164.7,0h117.5v337.1H1170V170
	l-77.5,119.9h-1.9L1013,170v167.1H902.7V0z M1338.3,0H1451v225.7h158.5v111.4h-271.2V0L1338.3,0z"/>
<path class="st4" d="M884.8,1531.4h273l-25.7,287.6l-247.3,66.7v230.7l454.6-126l3.3-37.5l52.1-583.7l5.4-59.5H884.8V1531.4z
	 M884.8,1082.1v0.5h535.6l4.4-49.8l10.1-112.4l5.3-59.5H884.8V1082.1L884.8,1082.1z"/>
</svg>
