<?xml version="1.0" encoding="utf-8"?>
<!-- Generator: Adobe Illustrator 24.1.0, SVG Export Plug-In . SVG Version: 6.00 Build 0)  -->
<svg version="1.1" id="Capa_1" xmlns="http://www.w3.org/2000/svg" xmlns:xlink="http://www.w3.org/1999/xlink" x="0px" y="0px"
	 viewBox="0 0 2500 2500" style="enable-background:new 0 0 2500 2500;" xml:space="preserve">
<style type="text/css">
	.st0{fill:#F7DF1E;}
</style>
<g>
	<path class="st0" d="M137.5,137.5h2225v2225h-2225V137.5z"/>
	<path d="M1632.1,1875.8c44.8,73.2,103.1,127,206.3,127c86.6,0,142-43.3,142-103.1c0-71.7-56.9-97.1-152.2-138.8l-52.3-22.4
		c-150.9-64.3-251.1-144.8-251.1-315c0-156.8,119.5-276.2,306.2-276.2c132.9,0,228.5,46.3,297.4,167.4l-162.8,104.5
		c-35.8-64.3-74.5-89.6-134.6-89.6c-61.2,0-100.1,38.8-100.1,89.6c0,62.7,38.8,88.1,128.6,127l52.3,22.4
		c177.6,76.2,277.9,153.8,277.9,328.5c0,188.2-147.9,291.4-346.5,291.4c-194.2,0-319.6-92.5-381-213.8L1632.1,1875.8z M893.5,1893.9
		c32.8,58.3,62.7,107.5,134.6,107.5c68.7,0,112-26.9,112-131.4v-710.9h209.1v713.8c0,216.5-126.9,315-312.2,315
		c-167.4,0-264.4-86.6-313.7-191L893.5,1893.9z"/>
</g>
</svg>
