<?xml version="1.0" encoding="utf-8"?>
<!-- Generator: Adobe Illustrator 24.1.0, SVG Export Plug-In . SVG Version: 6.00 Build 0)  -->
<svg version="1.1" id="Capa_1" xmlns="http://www.w3.org/2000/svg" xmlns:xlink="http://www.w3.org/1999/xlink" x="0px" y="0px"
	 viewBox="0 0 2500 2500" style="enable-background:new 0 0 2500 2500;" xml:space="preserve">
<style type="text/css">
	.st0{fill-rule:evenodd;clip-rule:evenodd;fill:#6E81B6;}
	.st1{fill-rule:evenodd;clip-rule:evenodd;fill:#FFFFFF;}
	.st2{fill-rule:evenodd;clip-rule:evenodd;}
</style>
<g>
	<g>
		<path class="st0" d="M1250,1883.5c690.4,0,1250-283.6,1250-633.5s-559.6-633.5-1250-633.5C559.7,616.5,0,900.2,0,1250
			S559.7,1883.5,1250,1883.5L1250,1883.5z"/>
		<path class="st1" d="M1503.2,1454.8l62-319.1c14-72,2.4-125.7-34.6-159.7c-35.8-32.8-96.5-48.8-185.7-48.8h-107.4l30.7-158.1
			c2.2-11-5-21.7-16-23.8c-1.3-0.3-2.6-0.4-3.9-0.4h-148.2c-9.7,0-18.1,6.9-20,16.5l-65.9,338.8c-6-38.1-20.7-70.9-44.3-97.9
			c-43.5-49.8-112.2-75-204.4-75H478.4c-9.7,0-18.1,6.9-20,16.4l-133.3,685.7c-1.2,6,0.4,12.1,4.3,16.8c3.9,4.7,9.6,7.4,15.7,7.4
			h149.4c9.7,0,18.1-6.9,20-16.5l32.2-165.9h111.2c58.3,0,107.4-6.3,145.7-18.8c39.1-12.7,75.2-34.3,106.9-64
			c25.7-23.6,46.8-50,63.2-78.4L947,1447c-1.2,6,0.4,12.1,4.3,16.8c3.9,4.7,9.6,7.4,15.7,7.4h148.2c9.7,0,18.1-6.9,20-16.4
			l73.1-376.4h101.7c43.3,0,56,8.6,59.5,12.3c3.1,3.4,9.6,15.3,2.3,52.9l-58.9,303.4c-2.1,11,5.1,21.7,16.2,23.8
			c1.3,0.2,2.5,0.4,3.8,0.4h150.6C1493,1471.2,1501.4,1464.3,1503.2,1454.8L1503.2,1454.8z M816.1,1191.1
			c-9.3,47.8-26.8,82-52.1,101.4c-25.7,19.8-66.8,29.9-122.2,29.9h-66.2l47.9-246.3h85.6c62.9,0,88.2,13.4,98.4,24.7
			C821.6,1116.3,824.6,1147.6,816.1,1191.1z M2127.5,1002.1c-43.5-49.8-112.2-75-204.4-75h-287.2c-9.7,0-18.1,6.9-20,16.4
			l-133.3,685.7c-1.2,6,0.4,12.1,4.2,16.8c3.9,4.7,9.6,7.4,15.7,7.4H1652c9.7,0,18.1-6.9,20-16.5l32.2-165.9h111.2
			c58.4,0,107.3-6.3,145.6-18.8c39.1-12.7,75.2-34.3,106.9-64c26.5-24.3,48.3-51.7,64.8-81.2c16.5-29.5,28.3-62.4,35.2-97.9
			C2184.9,1121.9,2171.3,1052.2,2127.5,1002.1L2127.5,1002.1z M1982.1,1191.1c-9.3,47.8-26.9,82-52.1,101.4
			c-25.7,19.8-66.8,29.9-122.2,29.9h-66.2l47.9-246.3h85.6c62.9,0,88.2,13.4,98.4,24.7C1987.5,1116.3,1990.5,1147.6,1982.1,1191.1z"
			/>
		<path class="st2" d="M709.1,1055.7c56.7,0,94.6,10.5,113.5,31.4c18.9,20.9,23.4,56.9,13.5,107.9c-10.3,53.1-30.2,90.9-59.7,113.7
			s-74.3,34-134.6,34h-90.9l55.8-287H709.1z M345.1,1633.2h149.4l35.4-182.3h128c56.5,0,102.9-5.9,139.4-17.8
			c36.5-11.9,69.6-31.7,99.4-59.7c25-23,45.3-48.4,60.8-76.1c15.5-27.8,26.5-58.4,33-91.8c15.8-81.3,3.9-144.6-35.7-190
			c-39.6-45.4-102.7-68-189.1-68H478.4L345.1,1633.2z M1100.2,765.1h148.2L1213,947.5h132c83,0,140.4,14.5,171.9,43.5
			c31.5,29,41,75.9,28.4,140.9l-62,319.1h-150.6l58.9-303.4c6.7-34.5,4.2-58.1-7.4-70.6c-11.7-12.5-36.5-18.8-74.4-18.8h-118.4
			l-76.3,392.9H966.9L1100.2,765.1z M1875,1055.7c56.7,0,94.6,10.5,113.5,31.4c18.9,20.9,23.4,56.9,13.5,107.9
			c-10.3,53.1-30.2,90.9-59.7,113.7c-29.5,22.7-74.3,34-134.5,34h-90.9l55.8-287H1875z M1511,1633.2h149.4l35.4-182.3h128
			c56.5,0,102.9-5.9,139.4-17.8c36.5-11.9,69.6-31.7,99.4-59.7c25-23,45.3-48.4,60.8-76.1c15.5-27.8,26.5-58.4,33-91.8
			c15.8-81.3,3.9-144.6-35.7-190c-39.6-45.4-102.7-68-189.1-68h-287.2L1511,1633.2z"/>
	</g>
</g>
</svg>
