<?xml version="1.0" encoding="utf-8"?>
<!-- Generator: Adobe Illustrator 24.1.0, SVG Export Plug-In . SVG Version: 6.00 Build 0)  -->
<svg version="1.1" id="Capa_1" xmlns="http://www.w3.org/2000/svg" xmlns:xlink="http://www.w3.org/1999/xlink" x="0px" y="0px"
	 viewBox="0 0 2500 2500" style="enable-background:new 0 0 2500 2500;" xml:space="preserve">
<style type="text/css">
	.st0{fill:#21759B;}
</style>
<path class="st0" d="M1250,2362.5c-616.5,0-1117.1-491.4-1112.5-1112.5C142.2,628.9,610.4,137.5,1250,137.5
	c639.7,0,1112.5,500.6,1112.5,1112.5S1866.6,2362.5,1250,2362.5z M1579.1,2191L1264,1342.7l-296.7,866.8
	C1185.2,2260.5,1333.5,2274.4,1579.1,2191L1579.1,2191z M809.7,2144.6L336.9,851.4c-64.9,139.1-78.8,255-88.1,398.6
	C253.4,1630.1,466.6,1977.7,809.7,2144.6z M2246.7,1250c4.6-245.7-106.6-440.4-115.9-468.2c9.3,190.1-18.6,287.4-51,394
	l-324.5,931.7c407.9-245.7,486.7-611.9,496-857.6H2246.7L2246.7,1250z M1217.6,1208.3L1060,777.2l-115.9-9.3
	c-46.3-32.5-18.6-83.4,13.9-83.4c208.6,13.9,324.5,13.9,533.1,0c51,0,64.9,74.2,4.6,83.4l-111.2,9.3L1746,1843.3l171.5-584.1
	c9.3-254.9-60.3-282.7-153-468.2c-74.2-143.7,4.6-282.8,148.4-287.4c-115.9-111.2-352.3-250.3-662.9-255s-639.7,153-834.4,449.6
	l343-9.3c41.7,18.6,23.2,78.8,0,83.4l-120.5,9.3l361.6,1084.7L1217.6,1208.3L1217.6,1208.3z"/>
</svg>
