<?xml version="1.0" encoding="utf-8"?>
<!-- Generator: Adobe Illustrator 24.1.0, SVG Export Plug-In . SVG Version: 6.00 Build 0)  -->
<svg version="1.1" id="Capa_1" xmlns="http://www.w3.org/2000/svg" xmlns:xlink="http://www.w3.org/1999/xlink" x="0px" y="0px"
	 viewBox="0 0 512 500.4" style="enable-background:new 0 0 512 500.4;" xml:space="preserve">
<style type="text/css">
	.st0{fill:#FFFFFF;}
</style>
<g>
	<path d="M435.7,0c-0.8,0-1.5,0-2.3,0.1H306.5h-97.7H78.5C77.8,0,77,0,76.3,0C34.1,0,0,34.2,0,76.3v125.1V299v125.1
		c0,42.1,34.1,76.3,76.3,76.3h130.9h97.7h130.9c42.1,0,76.3-34.1,76.3-76.3V299v-97.7V76.3C512,34.2,477.9,0,435.7,0z"/>
	<g>
		<g>
			<polygon class="st0" points="325.1,166.7 256,235.8 186.9,166.7 117.9,97.7 48.8,166.7 117.9,235.8 186.9,304.8 256,373.9 
				325.1,304.8 394.1,235.8 			"/>
			<g>
				<polygon class="st0" points="390,402.8 390,305.1 390,255.4 292.3,354.9 292.3,402.8 				"/>
				<polygon class="st0" points="123.2,402.8 123.2,305.1 123.2,255.4 220.9,354.9 220.9,402.8 				"/>
			</g>
		</g>
	</g>
</g>
</svg>
