<?xml version="1.0" encoding="utf-8"?>
<!-- Generator: Adobe Illustrator 24.1.0, SVG Export Plug-In . SVG Version: 6.00 Build 0)  -->
<svg version="1.1" id="Capa_1" xmlns="http://www.w3.org/2000/svg" xmlns:xlink="http://www.w3.org/1999/xlink" x="0px" y="0px"
	 viewBox="0 0 378 378" style="enable-background:new 0 0 378 378;" xml:space="preserve">
<style type="text/css">
	.st0{fill:#333333;}
</style>
<path class="st0" d="M293,11.1H85c-40.8,0-73.9,33.1-73.9,73.9v208c0,40.8,33.1,73.9,73.9,73.9h208c40.8,0,73.9-33.1,73.9-73.9V85
	C366.9,44.2,333.8,11.1,293,11.1z M339.5,294.2c0,25-20.3,45.3-45.3,45.3H83.8c-25,0-45.3-20.3-45.3-45.3V83.8
	c0-25,20.3-45.3,45.3-45.3h210.4c25,0,45.3,20.3,45.3,45.3V294.2z"/>
<path class="st0" d="M79.7,160.1c-2.3,0.1-4.6-0.7-6.3-2.3c-1.6-1.5-2.5-3.7-2.4-6c-0.1-2.1,0.8-4.2,2.4-5.6c1.8-1.5,4-2.2,6.3-2.1
	h3c2.3-0.2,4.6,0.6,6.3,2.1c1.6,1.5,2.5,3.6,2.4,5.8c0.1,2.2-0.8,4.3-2.4,5.8c-1.7,1.5-4,2.4-6.3,2.3H79.7z M72.8,234v-17.8
	l2.8-43.1h11.3l2.8,43.1V234H72.8z"/>
<path class="st0" d="M123.7,233.8v-89.4h15.4v35.9h24v-35.9h15.4v89.4h-15.3v-39.3h-24v39.3H123.7z"/>
<path class="st0" d="M192.6,233.8v-89.4h18.1l8.8,28.5c1,2.9,1.7,5.5,2.3,7.7c0.5,1.7,0.9,3.4,1.1,5.2c0.2-1.1,0.5-2.8,1.1-5.2
	s1.3-5,2.1-7.7l8.2-28.5h18.1v89.4H238V206c0-4.1,0.2-8.6,0.4-13.5c0.4-4.9,0.5-9.7,0.8-14.4c0.4-4.9,0.6-9.4,1.1-13.7
	s0.8-8.1,1.1-11.3l-12,42.2h-13.7l-12.3-42.2c0.5,3,0.8,6.8,1.3,11s0.8,8.8,1.1,13.5c0.4,4.9,0.6,9.5,1,14.6
	c0.4,4.9,0.4,9.5,0.4,13.9v27.8h-14.6V233.8z"/>
<path class="st0" d="M294.8,234c-2.3,0.1-4.5-0.8-6.2-2.3c-1.6-1.5-2.5-3.6-2.3-5.8c-0.1-2.2,0.8-4.3,2.3-5.8
	c1.7-1.5,3.9-2.4,6.2-2.3h3.7c2.3-0.1,4.5,0.7,6.2,2.3c3.1,3.3,3.1,8.3,0,11.6c-1.7,1.6-4,2.4-6.3,2.3H294.8z M291,205l-2.8-44
	v-16.8h16.7V161l-2.8,44H291z"/>
</svg>
