<svg id="Capa_1" data-name="Capa 1" xmlns="http://www.w3.org/2000/svg" viewBox="0 0 378 378"><defs><style>.cls-1{fill:#fff;}</style></defs><path class="cls-1" d="M293,11.1H85A73.92,73.92,0,0,0,11.1,85V293A73.92,73.92,0,0,0,85,366.9H293A73.92,73.92,0,0,0,366.9,293V85A73.92,73.92,0,0,0,293,11.1Zm46.5,283.1a45.32,45.32,0,0,1-45.3,45.3H83.8a45.32,45.32,0,0,1-45.3-45.3V83.8A45.32,45.32,0,0,1,83.8,38.5H294.2a45.32,45.32,0,0,1,45.3,45.3Z"/><path class="cls-1" d="M79.7,160.1a8.87,8.87,0,0,1-6.3-2.3,7.63,7.63,0,0,1-2.4-6,7,7,0,0,1,2.4-5.6,8.91,8.91,0,0,1,6.3-2.1h3a8.76,8.76,0,0,1,6.3,2.1,7.21,7.21,0,0,1,2.4,5.8,7.54,7.54,0,0,1-2.4,5.8,9,9,0,0,1-6.3,2.3ZM72.8,234V216.2l2.8-43.1H86.9l2.8,43.1V234Z"/><path class="cls-1" d="M123.7,233.8V144.4h15.4v35.9h24V144.4h15.4v89.4H163.2V194.5h-24v39.3Z"/><path class="cls-1" d="M192.6,233.8V144.4h18.1l8.8,28.5c1,2.9,1.7,5.5,2.3,7.7a37.88,37.88,0,0,1,1.1,5.2c.2-1.1.5-2.8,1.1-5.2s1.3-5,2.1-7.7l8.2-28.5h18.1v89.4H238V206c0-4.1.2-8.6.4-13.5.4-4.9.5-9.7.8-14.4.4-4.9.6-9.4,1.1-13.7s.8-8.1,1.1-11.3l-12,42.2H215.7l-12.3-42.2c.5,3,.8,6.8,1.3,11s.8,8.8,1.1,13.5c.4,4.9.6,9.5,1,14.6.4,4.9.4,9.5.4,13.9v27.8H192.6Z"/><path class="cls-1" d="M294.8,234a8.79,8.79,0,0,1-6.2-2.3,7.14,7.14,0,0,1-2.3-5.8,7.83,7.83,0,0,1,2.3-5.8,8.79,8.79,0,0,1,6.2-2.3h3.7a8.46,8.46,0,0,1,6.2,2.3,8.46,8.46,0,0,1,0,11.6,8.87,8.87,0,0,1-6.3,2.3ZM291,205l-2.8-44V144.2h16.7V161l-2.8,44Z"/></svg>