<svg width="167" height="102" viewBox="0 0 167 102" fill="none" xmlns="http://www.w3.org/2000/svg">
<g clip-path="url(#clip0_338_29)">
<path d="M127.27 31.18L115.55 28.7L108.11 30.42L102.01 38.23L92.86 26.32L82.75 23.17L78.18 23.84L76.65 36.85L76.56 36.76V36.85L66.95 30.51L66.47 30.23L62.85 27.94L11.63 0.67L0 0L12.68 13.45L23.83 15.45L12.95 14.97L29.44 26.79L49.84 29.79L32.03 29.85L45.57 41.1L50.05 47.59L54.44 51.3L54.82 51.59L58.63 54.85L58.82 55.04L61.21 57.04L61.78 58.19L61.87 58.28L63.87 62.48L52.24 74.65L43.09 81.71L26.89 89.91L17.54 95.72L14.11 102.01L25.95 99.73H26.05L38.44 94.48L47.88 92.38L52.36 90.29L66.28 88.67L64.47 93.53L66.85 94.39L71.9 88.57L75.15 88.76V90.38L70.76 93.72L76.1 94.86L79.44 92.1L80.01 89.43L83.63 88.95L98.41 79.95L99.17 79.66H99.27V79.28L104.13 72.9H107.13L115.99 61.26L116.18 60.98L120.12 55.85L126.8 44.22L129.47 39.55C130.52 38.79 142.81 29.82 164.74 26.39H164.95L167.14 22.96L131.3 31.16L127.27 31.18ZM126.42 32.04L124.99 34.04L118.5 30.32L126.42 32.04ZM117.45 47.85L112.4 51L109.26 48.33L113.64 44.61L114.31 44.71L117.45 47.85ZM115.74 44.61L123.17 44.8L118.31 47.28L115.74 44.61ZM105.06 59.78L100.87 55.97L106.2 56.06L105.06 59.78ZM105.54 61.21L111.73 61.59L103.06 64.45L105.54 61.21ZM100.87 55.11L108.02 49.29L108.49 48.91L112.12 52.06L111.73 51.96L106.59 55.2L100.87 55.11ZM113.74 43.29L107.44 48.63L101.53 53.39L106.68 45.39L111.16 40.34L117.07 35L124.51 34.72L122.41 37.58L113.74 43.29ZM110.88 39.19L107.44 35.37L115.55 34.99L110.88 39.19ZM115.45 29.75L122.51 33.75L116.98 33.94L109.92 30.94L115.45 29.75ZM108.59 31.46L114.78 34.13L106.2 34.52L108.59 31.46ZM105.82 34.99L110.21 39.99L106.4 44.37L102.58 39.23L105.82 34.99ZM105.73 45.1L100.1 53.77L100.29 46.62L98.95 43.76L99.04 43.29L100.86 41L100.95 40.9L101.71 39.95L105.73 45.1ZM68.93 80.1L67.5 72.18L80.08 73.23L68.93 80.1ZM79.8 74.57L72.55 84.29L69.4 80.95L79.8 74.57ZM66.74 73.42L67.95 80.56L63.28 82.18L66.74 73.42ZM62.35 82.29L54.25 79.24L66.07 72.66L62.35 82.29ZM66.64 42.15L55.01 45.49L65.01 40.44L66.64 42.15ZM65.95 39.95L67.67 39.09L68.05 41.76L67.67 41.86L65.95 39.95ZM67.48 43.1L69.19 45L59.66 48.72L67.48 43.1ZM68.62 38.71V38.61L68.05 34.61L74.34 46.05L75.01 46.81L70.72 45.1L70.15 44.72L68.24 42.52L69 41.52L68.62 38.71ZM69.95 45.77L74.81 47.77L74.24 47.96L62.51 52.53L69.95 45.77ZM97.95 42.71L83.07 35.71L98.42 40.2L97.95 42.71ZM98.52 44.91L99.38 46.81L97.95 47.29L98.52 44.91ZM89.75 54.15L91.94 50.44L94.7 59.11L89.75 54.15ZM94.51 60.15L85.27 59.39L88.98 55.1L89.27 54.91L94.51 60.15ZM91.95 48.63L90.62 48.15H92.24L91.95 48.63ZM92.43 48.24L94.91 48.34L92.62 49.01L92.43 48.24ZM89.67 47.24L97.77 44.18L97.1 47.43L89.67 47.24ZM91.48 49.52L89.38 53.05L87.76 48.19L91.48 49.52ZM88.71 54.1L85.28 58.01L87.19 49.71L88.71 54.1ZM89.86 64.4L80.86 64.2L84.29 60.39L89.86 64.4ZM86.23 49.52L83.95 59.3L83.09 59.49L77.37 60.26L86.23 49.52ZM81.95 53.2L77.56 48.2L86.33 47.92L81.95 53.2ZM83 60.45L79.76 63.97L77.18 61.3L83 60.45ZM79 64.55L69 69.98L76.25 61.69L79 64.55ZM75.67 60.55L66.23 61.79L75.86 53.5L75.67 60.55ZM75 61.55L67.18 70.61L64.99 62.89L75 61.55ZM68.52 71.28L79.39 65.36L80.91 72.36L68.52 71.28ZM80.43 65.17L90.06 65.36L81.95 72.08L80.43 65.17ZM82.53 72.71L90.95 65.85L91.05 76.15L90.86 76.34L82.53 72.71ZM89.97 76.9L84.95 83.85L82.38 73.75L89.97 76.9ZM85.95 60.45L94.95 61.11L91.33 64.26L85.95 60.45ZM92.15 64.83L92.63 64.45H92.53L96.15 61.3L97.87 68.3L92.15 64.83ZM97.95 69.31L91.95 75.22L91.86 65.69L97.95 69.31ZM95.85 59.21L93.09 50.63L98.81 55.49L98.52 55.97L95.85 59.21ZM93.47 49.67L97.86 48.34L99.57 47.77L99.09 54.54L93.47 49.67ZM100.14 37.38L101.48 39.09L100.43 40.33L99.67 39.76L100.14 37.38ZM100.05 40.71L99.29 41.71L99.48 40.56L100.05 40.71ZM99.38 36.33L98.81 39L86.61 26.79L97.95 34.32L99.38 36.33ZM92.38 27.17L96.09 32.04L85.61 25.04L92.38 27.17ZM82.65 24.22L93.71 35.22L79.7 24.6L82.65 24.22ZM79.12 25.27L96.86 38.71L78.17 33.28L79.12 25.27ZM77.98 34.42L97.24 43.42L87.89 46.95L87.13 47.04L77.6 37.7L77.98 34.42ZM77.32 38.85L85.71 47.04L76.65 47.33L77.32 38.85ZM81.32 54L76.65 59.63L76.84 52.76L76.46 52L73.22 49.33L76.22 48.33L81.32 54ZM75.41 52.38L65.59 56.01L72.36 49.85L75.41 52.38ZM76.41 37.8L75.74 46.28L75.08 45.52L67.83 32.36L76.41 37.8ZM67.69 38.85L65.4 39.42L64.16 37.99L67.4 36.65L67.69 38.85ZM64.35 39.61L53.87 42.05L63.21 38.23L64.35 39.61ZM67.35 36.46L63.44 37.13L62.77 36.37L66.87 33.03L67.35 36.46ZM62.45 28.85L66.74 31.61L66.83 31.99L63.3 34.99H61.68L59.59 32.6H59.39L51.86 24.02L62.45 28.85ZM62.35 37.33L51.58 39.24L61.11 35.85L62.35 37.33ZM60.25 35.04L46.05 35.42L58.35 32.85L60.25 35.04ZM11.25 1.58L48.34 21.31L54.44 28.37L28.89 11.97L3.81 1.15L11.25 1.58ZM3.05 1.96L26.6 12.16L13.06 12.54L3.05 1.96ZM17.35 13.35L28.6 12.97L44.43 23.08L31.18 15.85L17.35 13.35ZM30.89 16.69L51.2 27.75L17.73 16.12L30.89 16.69ZM29.84 25.94L17.54 17.07L51.67 28.99L29.84 25.94ZM56.44 30.61L57.95 32.32L42.22 30.7L56.44 30.61ZM34.89 30.85L53.48 32.85L40.71 35.75L34.89 30.85ZM41.38 36.38L58.06 36L45.95 40.24L41.38 36.38ZM46.71 41.05L59.11 38.86L48.24 43.25L46.71 41.05ZM48.81 44.05L61.59 41.1L50.59 46.63L48.81 44.05ZM51.39 47.49L65.02 43.58L55.2 50.85L51.39 47.49ZM55.68 51.2L67.5 46.63L59.2 54.16L55.68 51.2ZM61.87 56.45L59.68 54.54L70.07 50.44L62.35 57.5L61.87 56.45ZM62.54 57.97L74.08 53.85L64.54 62.05L62.54 57.97ZM64.16 63.41L66.45 71.32L53.45 78.57L52.98 75.23L64.16 63.41ZM52.05 75.99L52.53 79.13L45.09 85.52L43.66 82.37L52.05 75.99ZM27.27 90.76L38.33 85.23L21.33 97.06L18.66 96.06L27.27 90.76ZM15.92 100.76L18.02 96.76L24.22 99.14L15.92 100.76ZM37.92 93.76L33.16 95.76L25.82 98.76L22.38 97.43L42.95 83.14L44.38 86.38L37.92 93.76ZM47.55 91.66L39.55 93.47L45.08 87.09L51.28 89.95L47.55 91.66ZM52.03 89.18L45.74 86.32L53.18 79.94L61.47 83.08L52.03 89.18ZM53.56 89.37L62.33 83.56L66.16 87.85L53.56 89.37ZM63.38 83.27L67.95 81.61L66.81 87.05L63.38 83.27ZM66.52 93.38L65.67 93.09L67.76 87.75L68.76 82.6L71.15 88.13L66.52 93.38ZM72.05 87.75L70.05 83.27L74.46 87.85L72.05 87.75ZM73.05 85.08L81.35 74.02L84.02 84.61L75.72 87.94L73.05 85.08ZM83.25 88.08L79.15 88.65L78.58 91.65L75.89 93.85L73.03 93.28L76.03 90.9V88.85L93.03 82.08L83.25 88.08ZM86.02 83.79L90.95 77.13L97.62 79.13L86.02 83.79ZM98.13 78.35L92.02 76.54L98.13 70.44V78.35ZM98.89 68.25L96.79 59.67L99.65 56.33L104.65 60.81L98.89 68.25ZM103.54 71.85L99.15 77.57V69.85L104.39 71.85H103.54ZM99.44 68.99L102.2 65.36L105.95 71.51L99.44 68.99ZM106.95 71.32L103.23 65.32L114.23 61.7L106.95 71.32ZM119.15 55.2L114.88 60.85L105.82 60.28L107.16 56.08L112.02 53.03L119.55 54.56L119.15 55.2ZM120.1 53.68L112.38 52.06L118.2 48.53L121.25 51.77L120.1 53.68ZM121.72 50.91L118.95 48.05L125.15 44.91L121.72 50.91ZM125.63 44.05L114.76 43.67L122.87 38.42L128.3 39.42L125.63 44.05ZM164.24 25.36C142.72 28.85 130.52 37.47 128.89 38.61L123.65 37.61L125.75 34.61L125.84 34.52L127.46 32.13H131.28L164.95 24.22L164.24 25.36Z" fill="#00B8D9"/>
</g>
<defs>
<clipPath id="clip0_338_29">
<rect width="167" height="102" fill="white"/>
</clipPath>
</defs>
</svg>
